<?xml version="1.0" encoding="UTF-8"?>
<svg width="233.16" height="371.52" fill-rule="evenodd" version="1.1" viewBox="0 0 210.2192 297.3105" xmlns="http://www.w3.org/2000/svg">
 <path d="m0.45564-18.352h209.3v334.05h-209.3z" fill="#75c5f0" stroke="#c2c1c1" stroke-width=".91129"/>
 <path d="m73.363 270.2c3.5103 1.6737 5.9363 4.7937 8.3546 8.6204 2.595-4.2983 8.6761-8.2593 13.384-10.223 0.0715-3.6675 1.1537-8.3663 0.53609-12.035l-17.855-3.0843c-1.9635 4.9306-3.6633 10.635-4.4201 16.722z" fill="#f0c4a6" stroke="#ef9a48" stroke-width=".91129"/>
 <path d="m135.37 266.75c3.4199 1.8473 6.7382 5.449 9.6992 8.8418 2.8664-3.9511 6.374-8.0361 11.082-10 0.0715-3.6675-0.33094-7.3355-0.94851-11.004l-14.508 2.036-5.3245 10.126z" fill="#f0c4a6" stroke="#ef9a48" stroke-width=".91129"/>
 <path d="m131.05 278.37c-0.47913 3.8335-0.35546 5.136 0.6479 6.3055 1.4806 2.1608 3.9797 5.0323 6.9418 6.7495 1.1104 0.41419 2.0974 0.23632 2.9618-0.53286 1.9353 3.8659 5.0453 7.7323 8.5558 11.055 5.6658 5.3617 8.6418 6.5651 16.561 6.7672 17.621 0.44987 19.922-10.093 18.494-20.27l-54.162-10.074z" fill="#6d609e" stroke="#28166f" stroke-width=".91129"/>
 <path d="m69.54 135.08c-11.509-11.82-25.448-26.15-26.401-27.08-18.619-21.763-44.079-2.9-31.911 15.4 1.0258 1.3673 18.523 19.201 32.805 33.667l25.507-21.991z" fill="#dededd" stroke="#c2c1c1" stroke-width=".91129"/>
 <path d="m44.445 135.26-20.02-19.24c-1.3572-1.5687 0.61731-4.1146 2.5916-2.309l21.059 19.428-3.6311 2.1173z" fill="#0093dd" stroke="#007cc3" stroke-width=".91129"/>
 <path d="m46.96 153.84c-11.337-11.38-21.991-22.21-29.191-29.12-11.64-13.3-0.503-24.21 10.335-21.59 8.809 2.1248 18.531 15.384 24.694 21.398l14.454 14.106-20.291 15.213z" fill="#fff" stroke="#c2c1c1" stroke-width=".91129"/>
 <path d="m56.497 140.39-27.341-26.07c-3.5369-3.3292-7.9275 0.82738-4.2218 4.4058l27.577 25.492 3.9868-3.8322z" fill="#0093dd" stroke="#007cc3" stroke-width=".91129"/>
 <path d="m80.212 126.65c-36.037 3.1428-45.987 13.467-44.647 30.324 0.4467 6.5582 2.7469 15.489 0.41216 23.234 11.157-1.2322 19.675-4.3633 25.554-9.3923-4.3154-7.9099-3.1883-15.819 0.41216-23.728-1.8899 3.8383-2.7477 7.8188-3.1364 11.864 8.367-10.535 17.356-14.305 27.041-13.446l-30.941 38.738c-5.3343 19.001-15.496 33.371-26.348 47.079 41.039 34.088 105.56 30.322 144.67-0.39547-0.98358-2.4566-1.9954-4.9136-3.0349-7.3704-10.282-24.304-23.284-48.607-39.005-72.91 23.63-15.16 52.466-9.4887 65.793-25.044 1.4527-2.3189 2.566-4.4306 0.56405-5.803-8.3607-6.3563-16.451-13.101-24.317-20.169-2.3345-1.0753-3.8204 0.55791-6.4007 3.0347-11.368 15.515-26.588 13.413-39.605 19.436l-47.008 4.5483z" fill="#fff" stroke="#aaa9a9" stroke-width=".91129"/>
 <path d="m127.37 164.88c-1.2639-0.93768-18.242-11.287-10.035-11.287 5.0302 0 12.512 3.7983 16.351 0.11487 1.9854-1.905 12.311-3.1754 12.311 0.12701 0 4.4456 1.1914 7.748 3.0446 11.431 1.3238 2.5403 0.5295 9.3992-1.1914 11.05 1.6402-1.9217 3.033-3.4261 5.0084-2.9998 3.3202 0.7168 1.8931 6.0596 0.68376 7.8264-4.6152 6.743-11.517 7.3669-20.518 7.3669h-8.2072c-5.4274 0-2.6475-2.1593-2.6475-7.2399 0-3.9375 0-5.7157-1.3238-9.1451-0.92663-2.4133-6.1876-8.3595-3.4418-11.304 2.2501-2.413 8.6099 3.377 9.9661 4.0594z" fill="#fff" stroke="#c2c1c1" stroke-linejoin="bevel" stroke-width=".91129"/>
 <path d="m99.93 118.4h16.977l0.22467 6.0092c-5.7433 3.395-12.542 2.3159-16.864 0.86229l-0.337-6.8715z" fill="#f0c4a6" stroke="#ef9a48" stroke-width=".91129"/>
 <path d="m59.128 172.82c7.3919 6.37 21.718 21.619 36.63 30.209 2.8244 1.9169 5.305 1.8566 8.6149 0.82661l9.9985 8.8362 15.424-10.932-10.634-8.4425c1.5244-3.2703 1.6204-6.2248-0.69299-9.429-11.419-13.744-25.66-25.454-38.091-38.214-16.732 1.8382-22.631 6.8419-21.533 17.59 0.17404 1.7051 1.7132 6.2217 2.6857 7.5516-0.49627 0.56727-1.1924 1.1538-2.4025 2.0047z" fill="#dededd" stroke="#c2c1c1" stroke-width=".91129"/>
 <path d="m75.34 146.37 6.4429 6.4459 30.146 29.419c9.0682 12.069-7.5562 21.62-15.408 17.556-9.8701-6.4502-18.435-15.038-37.331-34.013-2.4692-11.307 3.6327-18.275 16.15-19.408z" fill="#fff" stroke="#c2c1c1" stroke-width=".91129"/>
 <path d="m60.816 154.62c17.766 16.196 33.922 32.762 51.737 48.427 3.0649 3.3371 3.697 6.0844 1.8184 9.6453 6.0299 5.0938 12.346 13.041 19.699 17.124 9.0289 5.0141 18.236-5.5469 9.8622-14.485-4.5255-5.2428-9.4252-9.0482-14.138-13.572-1.4743 1.3992-6.1934 2.2855-12.706-2.9712l-51.279-49.12c-1.7074 0.83902-3.798 3.0231-4.9949 4.9412z" fill="#0093dd" stroke="#007cc3" stroke-width=".91129"/>
 <path d="m47.871 178.09c0.42824 4.1958 1.5305 6.4446 3.4431 9.2939 1.0848 1.6158 3.335 3.0643 5.9864 4.0534 3.5019 1.3066 17.208 2.007 17.208-3.7634 0-2.4669-3.9594-4.3418-5.9648-4.7858-0.66847-0.14802-7.1475-2.1216-2.931-2.1216 2.8281 0 10.883-1.7344 10.846-5.4839-0.05353-5.3152-12.525 3.8917-17.331-2.4657-1.96 1.047-2.5175 1.7529-4.6729 2.621l-6.5839 2.6522z" fill="#f0c4a6" stroke="#ef9a48" stroke-width=".45564"/>
 <path d="m139.33 228.05c-2.3506 1.1879-6.1844-0.44354-7.7526-1.9482-2.9278-2.8093-3.3226-5.2145-3.3226-8.8557 0-1.8597 2.0819-0.99007 2.215-0.53134 1.4886 5.1211 7.0027 4.1429 9.3042 6.1732 1.2908 1.1388 1.8506 4.0025-0.44406 5.1621z" fill="#fff"/>
 <path d="m154.74 249.06c5.6536 10.849 22.162 4.2912 14.841-5.4247-0.23152-0.30717-1.8237-1.6798-2.0004-1.8493 10.435 8.1217 18.188-1.8673 10.97-6.9449 9.0901 5.4637 13.736-12.371 0.39422-7.3105 10.275-5.3288-1.1342-16.617-9.8938-6.9504l4.1769 10.343c-20.974 16.585-47.1 24.269-77.497 24.579v2.3733c0.10231 8.7992 10.079 11.085 12.653 2.5848 1.7636 8.3861 12.988 7.966 16.676 3.6875 1.5922-1.8476 1.7668-4.2381 1.7668-4.2381 6.0858 13.894 19.438 2.3564 15.963-1.9756 3.5963 4.8397 10.283 4.5822 12.578 1.2196 3.2848-4.8119-0.27266-7.8896-0.62601-10.093z" fill="#fff" stroke="#c2c1c1" stroke-linejoin="bevel" stroke-width=".91129"/>
 <path d="m95.727 257.87c-2.8033 9.7346-14.889 10.48-18.418-1.8797-2.6254 8.9723-15.798 7.896-12.778-1.0905-1.7668 7.9288-18.24 12.01-13.322-4.4347-3.2355 10.394-18.726 8.173-11.043-5.3789-11.345 11.287-23.204 0.99588-14.603-6.3971-16.204 1.5414-8.7307-15.772 0.98675-9.4308-2.9376-12.847 8.3507-11.009 8.9013-7.1015-1.2837 1.6722-4.4578 6.3017-6.4149 9.2946 20.971 16.208 39.03 20.839 66.691 24.045v2.3733z" fill="#fff" stroke="#c2c1c1" stroke-linejoin="bevel" stroke-width=".91129"/>
 <path d="m95.727 257.87v-2.3733" fill="none" stroke="#c2c1c1" stroke-width=".91129"/>
 <path d="m90.425 119.32c6.1929 9.0449 30.08 12.539 30.451-1.8551l4.9946-2.6281c3.1427 2.602 0.91555 7.2442-4.3502 11.44 1.8414-1.1014 3.5986-2.9254 5.2346-5.8055 2.576 10.668-2.5022 19.233-19.896 19.874-10.596 0.15383-18.589-4.0602-24.738-11.371-1.3024-1.549-2.0054-2.4674-1.5194-4.5705 0.50181-2.1701 2.3503-3.0061 4.2386-3.3421 1.17 2.179 3.158 4.0865 5.2626 5.5244-3.7806-2.8141-5.9073-5.7719-5.9614-9.2757l6.2836 2.0097z" fill="#fff" stroke="#c2c1c1" stroke-linejoin="bevel" stroke-width=".91129"/>
 <path d="m66.096 109.89c-6.498-16.519-5.826-37.751 11.035-54.925l45.139-20.729c12.795 4.7795 22.277 22.625 29.577 41.247-15.186 49.867-49.436 52.6-85.747 34.404z" fill="#f0c4a6" stroke="#ef9a48" stroke-width=".91129"/>
 <path d="m46.601 110.81c5.5276 2.1744 11.379 3.5208 19.495-0.92757-5.849-12.574-2.3239-23.605 2.5826-34.529-10.414 7.7011-15.251 15.366-22.078 35.457z" fill="#e77817" stroke="#da251d" stroke-linejoin="bevel" stroke-width=".91129"/>
 <path d="m16.248 99.626 0.13211 0.02302-0.13211-0.02302c7.3123 6.8593 15.069 13.649 28.739 14.99 9.1874-22.523 12.616-33.34 33.689-46.434 5.5782-3.4664 10.224-7.6164 12.714-17.067 0.26844 4.3919-0.77316 8.5824-4.2777 13.041 15.388-1.759 25.706-8.4273 26.078-21.942 1.4907 6.1456-1.2354 11.895-6.1254 17.372 6.0384-1.1715 12.544-3.9856 16.452-12.78 0.775-1.7441 1.9534-5.2253-0.76656-14.293 2.6488 1.9551 3.4557 11.125 3.1055 12.78 9.9745 6.4515 17.277 15.09 19.218 25.824 1.8237 10.084-0.15928 22.829-7.4897 34.07 15.566-7.2219 26.674-19.434 31.266-38.94-9.097 2.9586-15.199 0.52906-20.873-2.6704 15.099 4.571 23.02 4.1687 22.264-8.9012-8.6297 5.0224-14.918 5.8129-24.583 0 14.029 5.5333 25.867 3.6566 26.439-15.225-30.513 10.38-28.397-14.494-67.85-7.7897 2.0012 1.7514 3.4731 3.937 4.3784 6.9975-1.7776-2.9773-1.737-5.4915-4.2953-6.9646-1.6436 0.31577-5.6159 1.0402-7.4024 1.4655 4.9195 3.3254 8.4728 6.6668 7.4122 13.844 0.23047-6.4915-1.7525-11.165-7.9678-13.689-1.9859 0.51338-6.0644 1.5692-8.2302 2.223-1.2217 0.33146-4.2402 1.3309-5.4712 1.7382-1.0535 4.1733-1.6792 5.9404-3.0684 8.7577-0.16244 0.32968 2.1507-5.9039 2.3092-8.4954-1.2249 0.44886-6.9573 2.889-8.1616 3.3854-2.9631 11.541-6.2733 16.104-12.454 21.993 4.7571-5.5044 9.7522-11.022 11.485-21.526-2.5122 1.1884-6.5238 2.6529-8.6648 3.8226-4.537 12.593-7.262 15.897-13.516 21.471 4.438-5.135 10.371-11.275 12.129-20.35-20.802 12.864-35.106 30.465-52.303 32.563 0.11629 3.4254 0.97699 6.4178 2.1001 9.159 2.7543-0.33803 4.9182-1.154 8.5102-2.5345-2.5265 1.9781-4.419 3.0878-7.8222 5.277 0.05986 2.115 0.44907 3.8353 1.661 5.3979 3.2751-3.1185 5.8975-5.3741 10.801-7.6171-4.0456 3.4507-7.3328 6.5843-9.4398 11.048z" fill="#e77817" stroke="#da251d" stroke-linejoin="bevel" stroke-width=".91129"/>
 <path d="m43.405 59.943c24.128-21.198 57.175-30.647 81.095-29.178-1.7306-5.0002-4.6466-10.059-8.992-13.177l-3.4333 5.4905c7.1-10.641 8.9-19.374-0.99-22.589-12.72-1.9912-27.522-0.32308-40.672 4.5033-15.549 5.7067-28.79 15.828-33.553 29.538-1.1442 8.3668 3.5965 11.923 11.281 8.7848-6.7319 5.3076-7.1675 10.903-4.7412 16.628z" fill="#fff" stroke="#c2c1c1" stroke-width=".91129"/>
 <path d="m81.327 22.114c0.3966 1.0806 1.4996 1.3134 2.6739 1.1404 1.5286-0.22519 2.5069-0.77905 4.4688-1.1679l0.98543 4.7107c0.33859 1.1075 1.0395 2.1021 2.4342 1.7534 2.1064-0.52653 4.0891-0.73628 6.1992-1.0855 3.2508-0.53918 2.8326-2.1484 1.9864-5.0017l-0.5353-2.4664 3.0515-0.2849c4.2154-0.34107 3.6572-0.03821 2.8854-4.1197-0.20014-1.0594-0.53662-2.0915-0.8048-3.1372-0.45461-2.5079-1.3873-3.166-3.817-2.8427l-2.5228 0.1847-0.52581-3.9033c-0.5651-3.4874-1.1579-3.3474-3.6248-2.9768-2.0265 0.30438-3.9333 0.71756-6.0436 1.1986-3.8404 0.87519-3.6437 0.5698-2.541 4.1025l0.94587 3.0284c-1.8606 0.60851-3.6952 0.90657-5.7509 1.4344-1.0208 0.26187-2.5275 0.90302-1.9572 2.6742 0.77922 2.4194 1.8192 4.9258 2.4924 6.7589z" fill="#da251d" stroke="#8e292a" stroke-width=".91129"/>
 <path d="m84.804 0.80707c2.316-0.56145 10.27-1.3081 12.676-1.2312 0.41505-10.645-15.672-11.254-12.676 1.2312z" fill="#fff" stroke="#c2c1c1" stroke-width=".91129"/>
 <path d="m71.024 4.4677c3.541-1.2147 8.533-2.4317 13.4-3.3401-0.205-11.02-18.94-10.591-13.4 3.3401z" fill="#fff" stroke="#c2c1c1" stroke-width=".91129"/>
 <path d="m58.52 10.56c1.862-1.0989 7.427-4.0099 12.642-5.8291-6.057-13.893-21-3.3345-12.642 5.8291z" fill="#fff" stroke="#c2c1c1" stroke-width=".91129"/>
 <path d="m50.156 16.172c2.8579-2.5132 5.7035-3.9281 8.2552-5.5505-1.5286-3.2647-7.4262-8.8668-12.121-2.5423-0.68402 0.92124 0.17088 3.4519 1.5189 4.0987 0.337 0.16168 1.011 0.97008 1.348 1.6168 0 0.16168 0.8425 1.2934 0.8425 1.2934 0.337 0.32336-0.18037 1.0839 0.15664 1.0839z" fill="#fff" stroke="#c2c1c1" stroke-width=".91129"/>
 <path d="m37.142 39.924c-1.2663 0.52856-3.3603 0.52097-4.4786 0.5326-3.1498 3.4046 3.9233 6.7779 6.2396 2.6063-0.92056-0.98475-1.4097-2.0054-1.761-3.139z" fill="#fff" stroke="#c2c1c1" stroke-width=".91129"/>
 <path d="m97.908-0.51622c1.9208-0.1756 8.5152-0.084761 10.426 0.25985 2.42-10.136-11.841-11.714-10.422-0.25985z" fill="#fff" stroke="#c2c1c1" stroke-width=".91129"/>
 <path d="m108.4-0.24043c2.3669 0.35448 5.675 1.2223 7.5501 3.0911 8.8583-7.9891-6.9096-15.511-7.5501-3.0911z" fill="#fff" stroke="#c2c1c1" stroke-width=".91129"/>
 <path d="m115.97 2.8259c1.2549-1.6054 2.9531-2.4685 4.4493-2.5525 3.1701-0.17737 4.977 4.2143 2.2335 5.8936-1.28 0.7836-3.2361 0.86128-4.5635 0.68821-0.29956-1.5968-0.82721-2.6365-2.1193-4.0293z" fill="#fff" stroke="#c2c1c1" stroke-width=".91129"/>
 <path d="m117.45 13.082c0.70618-1.8372 0.95405-3.7475 0.74468-5.7319 4.9891 0.48099 3.9813 5.7524-0.74468 5.7319z" fill="#fff" stroke="#c2c1c1" stroke-width=".91129"/>
 <path d="m43.492 22.811c1.7277-2.0479 5.0785-5.2587 6.6641-6.6392-1.9258-3.4188-7.3814-4.0529-9.6009-1.6735-2.6246 2.8141-0.40583 7.4947 2.9368 8.3127z" fill="#fff" stroke="#c2c1c1" stroke-width=".91129"/>
 <path d="m38.875 29.862c1.0846-2.0484 2.7498-4.7932 4.3715-6.8146-2.7783-2.5621-8.5553-3.7465-10.434-0.47213-2.1699 3.7824 2.4721 6.6028 6.0621 7.2867z" fill="#fff" stroke="#c2c1c1" stroke-width=".91129"/>
 <path d="m37.142 39.924c-0.60122-2.722-0.0095-6.9439 1.7325-10.063-5.1827-1.9541-12.286 0.36586-12.844 4.927-0.64447 5.2691 6.5916 6.4292 11.111 5.1358z" fill="#fff" stroke="#c2c1c1" stroke-width=".91129"/>
 <path d="m97.629 87.409a7.8833 8.4397 0 1 0 -15.767 0 7.8833 8.4397 0 1 0 15.767 0" fill="#1f1a17" stroke="#1f1a17" stroke-width=".45564"/>
 <path d="m86.006 83.398c5.0914-2.3546 8.775 2.0446 8.5081 7.0769 3.4135-5.7263-2.7981-12.443-8.5081-7.0769z" fill="#fff" stroke="#c2c1c1" stroke-linejoin="bevel" stroke-width=".45564"/>
 <path d="m91.395 90.274a0.6036 0.57916 0 1 0 -1.2072 0 0.6036 0.57916 0 0 0 1.2072 0" fill="#fff" stroke="#c2c1c1" stroke-width=".45564"/>
 <path d="m137.55 76.736a7.8833 8.4397 0 1 0 -15.767 0 7.8833 8.4397 0 1 0 15.767 0" fill="#1f1a17" stroke="#1f1a17" stroke-width=".45564"/>
 <path d="m125.93 72.725c5.0914-2.3546 8.775 2.0446 8.5081 7.0769 3.4135-5.7263-2.7981-12.443-8.5081-7.0769z" fill="#fff" stroke="#c2c1c1" stroke-linejoin="bevel" stroke-width=".45564"/>
 <path d="m131.32 79.601a0.6036 0.57916 0 1 0 -1.2072 0 0.6036 0.57916 0 0 0 1.2072 0" fill="#fff" stroke="#c2c1c1" stroke-width=".45564"/>
 <path d="m106.06 86.367c-3.1973 3.3133-1.2272 8.4076 2.43 10.063 8.2402 3.7295 16.106-7.3052 12.022-9.8171-4.4298-2.7248-10.615-5.3994-10.615-11.535" fill="none" stroke="#ef9a48" stroke-width=".91129"/>
 <path d="m76.306 100.06 30.334-9.655c6.68 19.215-24.151 32.145-30.334 9.655z" fill="#3bb3c2" stroke="#1f1a17" stroke-width=".91129"/>
 <path d="m117.15 87.813 30.339-9.6539c6.6712 19.218-24.155 32.148-30.339 9.6539z" fill="#3bb3c2" stroke="#1f1a17" stroke-width=".91129"/>
 <path d="m63.531 93.903 12.775 6.1557" fill="none" stroke="#1f1a17" stroke-width=".91129"/>
 <path d="m106.66 90.336c2.8764-2.3614 8.6574-3.0871 10.559-2.5686" fill="none" stroke="#1f1a17" stroke-width=".91129"/>
 <path d="m107.59 94.9c4.4045 0.6075 7.932-0.55285 11.099-3.0866" fill="none" stroke="#1f1a17" stroke-width=".91129"/>
 <path d="m81.478 76.043c1.526-3.1946 5.7604-3.3692 8.3971-4.0255 2.9629-0.73755 2.9117-4.3332-0.096-4.4329-3.5493-0.11791-9.5824 4.2864-8.3011 8.4584z" fill="#da251d" stroke="#e77817" stroke-linejoin="bevel" stroke-width=".91129"/>
 <path d="m128.35 64.702c1.9896 0.03643 2.6728-3.4443-0.17246-3.94-2.5447-0.44354-7.8004 0.35397-9.0126 5.1778-0.078 0.31147 3.4818-1.3423 9.185-1.2378z" fill="#da251d" stroke="#e77817" stroke-linejoin="bevel" stroke-width=".91129"/>
 <path d="m133.99 69.584c1.4677-1.5384 2.128-3.3059 1.7174-5.4085-0.16165-1.0984 1.3206-1.2393 1.4092-0.21127 0.45857 2.3171-0.54716 4.233-2.5542 5.8733l-0.57248-0.25352z" fill="#1f1a17" stroke="#1f1a17" stroke-width=".45564"/>
 <path d="m136.08 71.951c1.7375-1.2532 2.7256-2.874 2.725-5.0131 0.0517-1.1082 1.5355-0.98526 1.4255 0.04099 5e-3 2.3586-1.3493 4.0642-3.6366 5.3223l-0.51394-0.35018z" fill="#1f1a17" stroke="#1f1a17" stroke-width=".45564"/>
 <path d="m136.47 74.278c1.9967-0.13435 3.6058-0.91289 4.7212-2.5666 0.61784-0.83167 1.7008-0.02404 1.0806 0.7163-1.2251 1.8263-3.163 2.4938-5.5872 2.3678l-0.21465-0.51742z" fill="#1f1a17" stroke="#1f1a17" stroke-width=".45564"/>
 <path d="m83.427 83.42c-1.8068-1.1593-2.8864-2.7255-3.0088-4.8615-0.11523-1.1037-1.5898-0.90227-1.421 0.11639 0.12895 2.3554 1.5806 3.9868 3.9364 5.1221l0.49337-0.377z" fill="#1f1a17" stroke="#1f1a17" stroke-width=".45564"/>
 <path d="m81.985 86.195c-1.9983-0.82054-3.3597-2.1696-3.8892-4.2474-0.32487-1.0647-1.7359-0.60649-1.3746 0.36511 0.57802 2.2924 2.3179 3.6397 4.8512 4.3398l0.41269-0.45746z" fill="#1f1a17" stroke="#1f1a17" stroke-width=".45564"/>
 <path d="m82.176 88.546c-1.9727 0.32513-3.7286-0.06401-5.2217-1.4159-0.80638-0.6667-1.6581 0.36485-0.87204 0.9425 1.6426 1.4943 3.6899 1.7003 6.0136 1.025l0.0802-0.55158z" fill="#1f1a17" stroke="#1f1a17" stroke-width=".45564"/>
 <path d="m110.17 109.97c2.4732 3.9284 7.7231 2.68 8.7128-0.53362" fill="none" stroke="#ef9a48" stroke-width=".91129"/>
 <path d="m116.36 104.18a2.2841 2.2961 0 1 0 -4.5682 0 2.2841 2.2961 0 1 0 4.5682 0" fill="#1f1a17"/>
 <path d="m189.43 85.213 7.688-6.5957c4.0701-2.2564 8.2307-1.9093 8.2307 3.7318 0 2.5261-3.1933 4.1523-6.4215 6.3267-4.8744 3.6045-2.5244 5.5543 6.5979 14.589-4.7821 4.125-11.736 10.414-15.643 10.414l-11.668-8.8521 11.215-19.614z" fill="#f0c4a6" stroke="#ef9a48" stroke-width=".91129"/>
 <path d="m174.6 100.57c-0.54269-2.8639-0.99097-8.4071 2.8943-9.6332 2.9885-0.94325 3.5195-2.2584 4.251-5.2071 0.62496-2.5186-0.45224-5.2071 3.0752-5.2071 4.7236 0 6.0832 7.0504 3.2696 9.7501-3.437 3.2978-4.328 4.3436-0.89103 7.6414 1.628 1.5621 4.4243 3.0124 2.8674 6.0406-1.7894 3.4805-4.4319 7.29-7.688 4.1657-1.5376-1.4754-7.688-5.2071-7.7785-7.5503z" fill="#f0c4a6" stroke="#ef9a48" stroke-width=".91129"/>
 <path d="m198.94 88.666c-2.1834 1.3663-4.2719 2.6415-6.1705 4.4633-2.1831 2.0947-3.0992 3.5142-1.7087 5.3994 1.1977 1.6239 6.777-1.4167 9.762-3.436-1.6969 1.3397-2.7677 1.6064-3.4333 2.0586-3.9649 2.6936-4.3201 4.2069-3.3278 5.5887 1.8395 2.5618 7.8375-1.2826 10.272-2.993-1.78 1.6122-5.0255 2.491-6.0402 4.1586-3.0562 5.0222 5.0569 5.4027 9.021-0.0154 0.8317-1.1373 1.3454-2.7528 0.15005-3.9362-0.79214-0.78436-2.0798-1.0364-1.9743-1.0862 2.0149-0.95388 2.128-6.6941-3.0459-4.9744 2.7949-6.0216-3.365-5.5829-3.5042-5.2274z" fill="#f0c4a6" stroke="#ef9a48" stroke-width=".91129"/>
 <path d="m157.38 265.97c-5.5154 2.4958-8.5197 5.5915-12.294 11.081-3.2785-4.4838-6.2994-7.273-10.352-9.9004-1.0724 0.0741-2.1452-0.2386-3.0161-0.48681-2.7095 2.5459-1.3778 7.5172-0.67216 11.7 8.8512 2.9889 15.339 15.156 23.484 21.85 4.0815 3.3543 7.9641 4.2947 13.319 4.2302 9.4255-0.1136 16.479-4.7793 17.359-16.006 0.56484-7.2062-3.8887-13.045-19.679-15.794 1.4767-5.1735-1.9448-7.5691-8.1484-6.6741z" fill="#da251d" stroke="#8b2829" stroke-width=".91129"/>
 <path d="m153.87 281.45c0.0567 6.9401 4.1347 10.803 9.353 10.885 2.8732 0.0453 10.367-2.1216 11.962-4.9293 2.0486-3.6076-2.7161-7.8815-10.395-9.8556-0.6363-1.862-2.9911-3.3768-4.4412-4.2844-1.5824-0.8843-4.4807 0.3684-7.0283 2.1949-2.0779 1.4898-3.3531 2.6529-0.62574 4.4999 0.51657 0.34993 0.78027 1.0326 1.175 1.4895z" fill="#f0c4a6" stroke="#ef9a48" stroke-width=".91129"/>
 <path d="m61.639 157.64 7.1847-6.9101 1.0135 0.97024-7.1847 6.9101z" fill="#72706f"/>
 <path d="m64.172 160.06 7.1847-6.9101 1.0135 0.97024-7.1847 6.9101z" fill="#72706f"/>
 <path d="m66.874 162.65 7.1847-6.9101 1.0135 0.97024-7.1847 6.9101z" fill="#72706f"/>
 <path d="m63.247 151.08 10.216 9.8829-0.99756 0.95894-10.27-9.8323 1.0519-1.0095z" fill="#72706f"/>
 <path d="m65.509 168.33 14.37-13.82 1.0136 0.97024-14.37 13.82z" fill="#72706f"/>
 <path d="m71.737 167.24 7.1847-6.9101 1.0136 0.97024-7.1847 6.9101z" fill="#72706f"/>
 <path d="m74.355 169.75 7.1847-6.9101 1.0136 0.97024-7.1847 6.9101z" fill="#72706f"/>
 <path d="m76.887 172.17 7.1847-6.9101 1.0136 0.97024-7.1847 6.9101z" fill="#72706f"/>
 <path d="m79.589 174.76 7.1847-6.9101 1.0136 0.97024-7.1847 6.9101z" fill="#72706f"/>
 <path d="m70.831 160.29 0.99748-0.95934 14.349 13.736-0.99748 0.95933z" fill="#72706f"/>
 <path d="m78.482 180.75 14.37-13.82 1.0136 0.97024-14.37 13.82z" fill="#72706f"/>
 <path d="m84.711 179.66 7.1847-6.9101 1.0136 0.97024-7.1847 6.9101z" fill="#72706f"/>
 <path d="m87.328 182.16 7.1847-6.9101 1.0136 0.97024-7.1847 6.9101z" fill="#72706f"/>
 <path d="m89.861 184.59 7.1847-6.9101 1.0136 0.97024-7.1847 6.9101z" fill="#72706f"/>
 <path d="m92.562 187.17 7.1847-6.9101 1.0136 0.97024-7.1847 6.9101z" fill="#72706f"/>
 <path d="m83.805 172.71 0.99748-0.95934 14.349 13.736-0.99748 0.95933z" fill="#72706f"/>
 <path d="m91.596 193.3 14.37-13.82 1.0136 0.97024-14.37 13.82z" fill="#72706f"/>
 <path d="m97.824 192.21 7.1847-6.9101 1.0136 0.97024-7.1847 6.9101z" fill="#72706f"/>
 <path d="m100.44 194.72 7.1847-6.9101 1.0136 0.97024-7.1847 6.9101z" fill="#72706f"/>
 <path d="m102.97 197.14 7.1847-6.9101 1.0136 0.97024-7.1847 6.9101z" fill="#72706f"/>
 <path d="m105.68 199.73 7.1847-6.9101 1.0136 0.97024-7.1847 6.9101z" fill="#72706f"/>
 <path d="m96.918 185.26 0.99748-0.95934 14.349 13.736-0.99748 0.95933z" fill="#72706f"/>
 <path d="m22.026 118.45 7.1847-6.9101 1.0135 0.97024-7.1847 6.9101z" fill="#72706f"/>
 <path d="m24.559 120.87 7.1847-6.9101 1.0135 0.97024-7.1847 6.9101z" fill="#72706f"/>
 <path d="m27.261 123.46 7.1847-6.9101 1.0135 0.97024-7.1847 6.9101z" fill="#72706f"/>
 <path d="m23.633 111.89 10.216 9.8839-0.99756 0.95894-10.27-9.8333 1.0519-1.0096z" fill="#72706f"/>
 <path d="m25.895 129.14 14.37-13.82 1.0135 0.97024-14.37 13.82z" fill="#72706f"/>
 <path d="m32.124 128.05 7.1847-6.9101 1.0135 0.97024-7.1847 6.9101z" fill="#72706f"/>
 <path d="m34.741 130.56 7.1847-6.9101 1.0135 0.97024-7.1847 6.9101z" fill="#72706f"/>
 <path d="m37.274 132.98 7.1847-6.9101 1.0135 0.97024-7.1847 6.9101z" fill="#72706f"/>
 <path d="m39.975 135.57 7.1847-6.9101 1.0135 0.97024-7.1847 6.9101z" fill="#72706f"/>
 <path d="m31.218 121.1 0.99748-0.95934 14.349 13.736-0.99748 0.95933z" fill="#72706f"/>
 <path d="m100.95 99.035c-1.3654 3.2609-5.5864 3.6291-8.1875 4.4053-2.9228 0.87216-2.6929 4.4615 0.31617 4.4235 3.5512-0.0448 9.3585-4.7201 7.8713-8.8288z" fill="#fff"/>
 <path d="m141.39 87.643c-1.3654 3.2609-5.5864 3.6291-8.1875 4.4053-2.9228 0.87216-2.6929 4.4615 0.31617 4.4235 3.5512-0.04479 9.3585-4.7201 7.8713-8.8288z" fill="#fff"/>
 <path d="m123.23 147.53c7.5567-0.90631 14.683 3.0274 22.781 3.2854 0.0728-4.9632-12.524-19.157-22.781-3.2854z" fill="#84c225" stroke="#00923f" stroke-width=".91129"/>
 <path d="m154.75 127.02c-0.337-2.4791-1.368-5.9682 1.348-7.2217 1.9047-0.87924 3.25-0.84584 4.8043 0.26871 0.46331 0.33221 1.7064 0.68998 2.7097 0.56626 1.1376-0.14018 2.2907-0.40382 2.7084-0.40382 1.0661 0 1.6832 0.52577 1.9645 1.2287 0.62865 1.571-0.33173 3.4489-1.5645 4.944-0.30457 0.36941-2.2528 2.5325-3.3046 3.792 1.8517-0.28161 6.2746-0.26389 8.5213 0.81397 4.044 1.9402-2.1344 4.8504-1.4604 6.2516 1.011 2.0479 1.1233 6.4672-2.359 4.8504-1.5727-0.7545-6.0096-3.9314-3.9317-2.0479 4.4694 4.0518 4.9654 5.0632 1.2317 6.5246-0.82141 0.32159-1.729 1.1221-2.3551 2.078-4.1416 6.3232-5.4245-3.5172-5.9537-5.0457 0 2.9102-0.337 9.8085-4.044 8.084-0.89867-0.43115-2.8084-3.018-3.1454-3.018-2.4714 0-6.7403 0.0529-4.4934-4.0959 0.76841-1.4187 3.158-3.6032 3.2031-4.2684 0.0298-0.44177-0.101-0.0177-2.729 2.2364-1.8949 1.6246-3.3033 2.6883-4.6305 0.0918-1.593-3.1159 0.44934-2.1557-3.033-3.7725-3.5947-1.7246-0.44933-7.1139 3.2577-7.1139 2.9207 0 7.9586 1.6246 3.4586-0.51768-4.1951-1.9968-3.8829-4.9888-1.5099-5.7787 2.2636-0.75374 2.7406-1.4951 3.9172-2.7063 1.8873-1.9422 4.89-1.2464 5.9466 1.0812l1.4429 3.1789z" fill="#da251d" stroke="#8b2829" stroke-linejoin="bevel" stroke-width=".91129"/>
 <path d="m159.96 135.29a3.8056 3.7468 0 1 0 -7.6113 0 3.8056 3.7468 0 1 0 7.6113 0" fill="#8d2929" stroke="#8b2829" stroke-width=".91129"/>
 <path d="m161.26 165.84c-0.73571-1.1406-1.8899-2.2516-3.0662-3.1804-2.3005-1.8172-4.5007-2.3409-7.0014-3.6437-1.9825-1.0333-3.6451-2.7928-4.2513-7.288 16.445-2.1565 16.501 5.0234 14.319 14.112z" fill="#84c225" stroke="#00923f" stroke-width=".91129"/>
 <path d="m95.936 281.22c0.47914 3.8335 0.35547 5.136-0.64789 6.3055-1.4806 2.1608-3.9797 5.0323-6.9418 6.7495-1.1104 0.41419-2.0974 0.23632-2.9618-0.53286-1.9352 3.8659-5.0453 7.7323-8.5558 11.055-5.6657 5.3617-8.6418 6.5651-16.561 6.7672-17.621 0.44987-19.922-10.093-18.494-20.27l54.162-10.074z" fill="#6d609e" stroke="#28166f" stroke-width=".91129"/>
 <path d="m69.602 268.82c5.5154 2.4958 8.5197 5.5915 12.294 11.081 2.2092-3.7892 7.6039-8.4076 13.368-10.387 2.7095 2.5459 1.3778 7.5172 0.67215 11.7-8.8512 2.9889-15.339 15.156-23.484 21.85-4.0815 3.3543-7.9641 4.2948-13.319 4.2302-9.4255-0.11361-16.479-4.7793-17.359-16.006-0.56484-7.2062 3.8887-13.045 19.679-15.794-1.4767-5.1735 1.9448-7.5691 8.1484-6.6741z" fill="#da251d" stroke="#8b2829" stroke-width=".91129"/>
 <path d="m73.117 284.29c-0.05669 6.9401-4.1347 10.803-9.353 10.885-2.8732 0.0453-10.367-2.1216-11.962-4.9293-2.0486-3.6075 2.7161-7.8815 10.395-9.8556 0.6363-1.862 2.9911-3.3768 4.4412-4.2844 1.5824-0.88431 4.4807 0.36839 7.0283 2.1949 2.0779 1.4898 3.3531 2.6529 0.62575 4.4999-0.51658 0.34992-0.78027 1.0326-1.175 1.4895z" fill="#f0c4a6" stroke="#ef9a48" stroke-width=".91129"/>
</svg>
