<?xml version="1.0" encoding="UTF-8"?>
<svg viewBox="0 0 600 700" xmlns="http://www.w3.org/2000/svg" xmlns:xlink="http://www.w3.org/1999/xlink">
 <defs>
  <filter id="bl">
   <feGaussianBlur stdDeviation=".3933"/>
  </filter>
  <filter id="u">
   <feGaussianBlur stdDeviation=".64913"/>
  </filter>
  <filter id="t">
   <feGaussianBlur stdDeviation=".57734"/>
  </filter>
  <filter id="r">
   <feGaussianBlur stdDeviation=".76397"/>
  </filter>
  <filter id="q">
   <feGaussianBlur stdDeviation=".66078"/>
  </filter>
  <filter id="bk">
   <feGaussianBlur stdDeviation=".84666"/>
  </filter>
  <filter id="bi">
   <feGaussianBlur stdDeviation=".88107"/>
  </filter>
  <filter id="f">
   <feGaussianBlur stdDeviation=".98016"/>
  </filter>
  <filter id="ba">
   <feGaussianBlur stdDeviation=".52664"/>
  </filter>
  <filter id="ay">
   <feGaussianBlur stdDeviation=".7261"/>
  </filter>
  <filter id="o">
   <feGaussianBlur stdDeviation="1.47618"/>
  </filter>
  <filter id="ar">
   <feGaussianBlur stdDeviation=".63051"/>
  </filter>
  <filter id="a">
   <feGaussianBlur stdDeviation="1.61784"/>
  </filter>
  <filter id="p">
   <feGaussianBlur stdDeviation=".61692"/>
  </filter>
  <filter id="s" x="-.08666" y="-.19502" width="1.1733" height="1.39">
   <feGaussianBlur stdDeviation=".6943"/>
  </filter>
  <filter id="bj" x="-.03192" y="-.18375" width="1.0638" height="1.3675">
   <feGaussianBlur stdDeviation=".88107"/>
  </filter>
  <filter id="bh" x="-.36355" y="-.18525" width="1.7271" height="1.3705">
   <feGaussianBlur stdDeviation="3.58307"/>
  </filter>
  <filter id="bg" x="-.37771" y="-.11952" width="1.7554" height="1.239">
   <feGaussianBlur stdDeviation="3.58307"/>
  </filter>
  <filter id="bf" x="-.11047" y="-.0534" width="1.2209" height="1.1068">
   <feGaussianBlur stdDeviation="1.24707"/>
  </filter>
  <filter id="be" x="-.1038" y="-.10252" width="1.2076" height="1.205">
   <feGaussianBlur stdDeviation="1.51913"/>
  </filter>
  <filter id="bd" x="-.14439" y="-.10266" width="1.2888" height="1.2053">
   <feGaussianBlur stdDeviation="2.52876"/>
  </filter>
  <filter id="e" x="-.10685" y="-.13685" width="1.2137" height="1.2737">
   <feGaussianBlur stdDeviation="1.87122"/>
  </filter>
  <filter id="bc" x="-.0749" y="-.30162" width="1.1498" height="1.6032">
   <feGaussianBlur stdDeviation="3.12277"/>
  </filter>
  <filter id="bb" x="-.06946" y="-.15538" width="1.1389" height="1.3108">
   <feGaussianBlur stdDeviation="1.26505"/>
  </filter>
  <filter id="az" x="-.05256" y="-.19361" width="1.1051" height="1.3872">
   <feGaussianBlur stdDeviation=".7261"/>
  </filter>
  <filter id="ax" x="-.101" y="-.25074" width="1.202" height="1.5015">
   <feGaussianBlur stdDeviation=".9827"/>
  </filter>
  <filter id="aw" x="-.11819" y="-.12187" width="1.2364" height="1.2437">
   <feGaussianBlur stdDeviation=".63679"/>
  </filter>
  <filter id="av" x="-.03336" y="-.29812" width="1.0667" height="1.5962">
   <feGaussianBlur stdDeviation=".74966"/>
  </filter>
  <filter id="au" x="-.07135" y="-.70331" width="1.1427" height="2.4066">
   <feGaussianBlur stdDeviation=".52199"/>
  </filter>
  <filter id="at" x="-.05244" y="-.22148" width="1.1049" height="1.443">
   <feGaussianBlur stdDeviation=".52199"/>
  </filter>
  <filter id="as" x="-.21616" y="-.08305" width="1.4323" height="1.1661">
   <feGaussianBlur stdDeviation="3.36624"/>
  </filter>
  <filter id="d" x="-.47908" y="-.06859" width="1.9582" height="1.1372">
   <feGaussianBlur stdDeviation="1.87998"/>
  </filter>
  <filter id="n" x="-.24433" y="-.07953" width="1.4887" height="1.1591">
   <feGaussianBlur stdDeviation="7.07489"/>
  </filter>
  <filter id="aq" x="-.11703" y="-.03019" width="1.2341" height="1.0604">
   <feGaussianBlur stdDeviation="2.52894"/>
  </filter>
  <filter id="ap" x="-.04476" y="-.1839" width="1.0895" height="1.3678">
   <feGaussianBlur stdDeviation="2.98594"/>
  </filter>
  <linearGradient id="h">
   <stop stop-color="#000080" offset="0"/>
   <stop stop-color="#000080" stop-opacity="0" offset="1"/>
  </linearGradient>
  <linearGradient id="c">
   <stop stop-color="#fff" offset="0"/>
   <stop stop-color="#fff" stop-opacity="0" offset="1"/>
  </linearGradient>
  <linearGradient id="i">
   <stop offset="0"/>
   <stop stop-opacity="0" offset="1"/>
  </linearGradient>
  <linearGradient id="ad" x2="0" y1="87.362" y2="148.16" gradientUnits="userSpaceOnUse">
   <stop stop-color="#b3b3b3" offset="0"/>
   <stop stop-color="#b3b3b3" offset=".59398"/>
   <stop stop-color="#666" offset="1"/>
  </linearGradient>
  <linearGradient id="aa" x1="371.85" x2="393.13" y1="689.45" y2="726.3" gradientUnits="userSpaceOnUse">
   <stop stop-color="#fff" offset="0"/>
   <stop stop-color="#4d4d4d" offset="1"/>
  </linearGradient>
  <linearGradient id="y" x1="1237.2" x2="1312.1" y1="574.93" y2="563.67" gradientUnits="userSpaceOnUse">
   <stop stop-color="#7f0000" offset="0"/>
   <stop stop-color="#f00" offset=".3729"/>
   <stop stop-color="#f00" offset=".61295"/>
   <stop stop-color="#800000" offset="1"/>
  </linearGradient>
  <linearGradient id="x" x1="1343" x2="1331" y1="599.22" y2="583.82" gradientUnits="userSpaceOnUse">
   <stop stop-color="#f00" offset="0"/>
   <stop stop-color="#800000" offset="1"/>
  </linearGradient>
  <linearGradient id="ao" x1="-346.81" x2="-276.61" y1="768.45" y2="640.93" gradientUnits="userSpaceOnUse" xlink:href="#c"/>
  <linearGradient id="b" x1="-314.02" x2="-276.61" y1="707.37" y2="640.93" gradientUnits="userSpaceOnUse" xlink:href="#c"/>
  <linearGradient id="an" x1="-344.57" x2="-276.61" y1="764.38" y2="640.93" gradientUnits="userSpaceOnUse" xlink:href="#c"/>
  <linearGradient id="am" x1="-342.15" x2="-276.61" y1="759.99" y2="640.93" gradientUnits="userSpaceOnUse" xlink:href="#c"/>
  <linearGradient id="al" x1="-350.26" x2="-276.61" y1="774.73" y2="640.93" gradientUnits="userSpaceOnUse" xlink:href="#c"/>
  <linearGradient id="ak" x1="-350.02" x2="-276.61" y1="774.28" y2="640.93" gradientUnits="userSpaceOnUse" xlink:href="#c"/>
  <linearGradient id="aj" x1="-339.9" x2="-276.61" y1="755.89" y2="640.93" gradientUnits="userSpaceOnUse" xlink:href="#c"/>
  <linearGradient id="ai" x1="-340.92" x2="-276.61" y1="757.76" y2="640.93" gradientUnits="userSpaceOnUse" xlink:href="#c"/>
  <linearGradient id="ah" x1="-344.68" x2="-276.61" y1="764.58" y2="640.93" gradientUnits="userSpaceOnUse" xlink:href="#c"/>
  <linearGradient id="ag" x1="-341.42" x2="-276.61" y1="758.66" y2="640.93" gradientUnits="userSpaceOnUse" xlink:href="#c"/>
  <linearGradient id="af" x1="612.22" x2="582.38" y1="624.8" y2="633.12" gradientUnits="userSpaceOnUse" xlink:href="#c"/>
  <linearGradient id="ae" x1="-153.04" x2="-61.02" y1="581.63" y2="621.79" gradientUnits="userSpaceOnUse" xlink:href="#c"/>
  <linearGradient id="ac" x2="0" y1="57.077" y2="127.99" gradientUnits="userSpaceOnUse" xlink:href="#i"/>
  <linearGradient id="m" x1="40.714" x2="22.593" y1="62.362" y2="129.99" gradientUnits="userSpaceOnUse" xlink:href="#c"/>
  <linearGradient id="l" x1="94.009" x2="32.935" y1="164.95" y2="129.69" gradientUnits="userSpaceOnUse" xlink:href="#i"/>
  <linearGradient id="ab" x1="439.44" x2="467.35" y1="124.39" y2="166.49" gradientUnits="userSpaceOnUse" xlink:href="#c"/>
  <linearGradient id="k" x1="1023.3" x2="982.87" y1="742.5" y2="730.4" gradientUnits="userSpaceOnUse" xlink:href="#c"/>
  <linearGradient id="z" x1="-344.07" x2="-276.61" y1="763.48" y2="640.93" gradientUnits="userSpaceOnUse" xlink:href="#c"/>
  <linearGradient id="w" x1="389.97" x2="433.42" y1="724.98" y2="711.27" gradientTransform="matrix(1 0 -.20513 1 143.26 0)" gradientUnits="userSpaceOnUse" xlink:href="#h"/>
  <linearGradient id="v" x1="407.67" x2="378.66" y1="730.98" y2="747.73" gradientUnits="userSpaceOnUse" xlink:href="#h"/>
  <linearGradient id="j" x1="523.31" x2="564.16" y1="726.03" y2="766.88" gradientUnits="userSpaceOnUse" xlink:href="#c"/>
  <radialGradient id="g" cx="11.99" cy="166.04" r="22.913" gradientTransform="matrix(0 -1.3616 1.204 -1.6907e-6 -176.42 136.19)" gradientUnits="userSpaceOnUse">
   <stop stop-opacity="0" offset="0"/>
   <stop stop-opacity="0" offset=".66792"/>
   <stop stop-opacity=".24561" offset="1"/>
  </radialGradient>
 </defs>
 <g transform="translate(-102.54 -201.04)">
  <g transform="matrix(.43272 .43272 .43272 -.43272 128.36 806.6)">
   <path d="m-294.44 603.94c-18.802 0-34.063 18.195-34.062 40.625s15.261 40.625 34.062 40.625c15.045 0 27.807-11.663 32.312-27.812-3.9844 4.4231-9.3198 7.125-15.188 7.125-12.316 2e-5 -22.312-11.932-22.312-26.625s9.9963-26.594 22.312-26.594c0.87611 0 1.7439 0.03887 2.5938 0.15625-5.5667-4.7269-12.37-7.5-19.719-7.5z"/>
   <path transform="matrix(1 0 0 .95349 0 28.591)" d="m-294.44 607.34c-16.599 0-30.656 16.338-30.656 37.219s14.058 37.219 30.656 37.219c10.057 0 19.125-5.9647 24.75-15.344-2.4187 0.88149-4.9507 1.4688-7.625 1.4688-14.522 2e-5 -25.719-13.79-25.719-30.031 1e-5 -13.314 7.5685-24.826 18.281-28.594-3.051-1.2384-6.2993-1.9375-9.6875-1.9375z" fill="url(#ao)" filter="url(#a)"/>
  </g>
  <g transform="matrix(-.72867 .4207 .4207 .72867 -308.94 164.99)">
   <path d="m-294.44 603.94c-18.802 0-34.063 18.195-34.062 40.625s15.261 40.625 34.062 40.625c15.045 0 27.807-11.663 32.312-27.812-3.9844 4.4231-9.3198 7.125-15.188 7.125-12.316 2e-5 -22.312-11.932-22.312-26.625s9.9963-26.594 22.312-26.594c0.87611 0 1.7439 0.03887 2.5938 0.15625-5.5667-4.7269-12.37-7.5-19.719-7.5z"/>
   <path transform="matrix(1 0 0 .95349 0 28.591)" d="m-294.44 607.34c-16.599 0-30.656 16.338-30.656 37.219s14.058 37.219 30.656 37.219c10.057 0 19.125-5.9647 24.75-15.344-2.4187 0.88149-4.9507 1.4688-7.625 1.4688-14.522 2e-5 -25.719-13.79-25.719-30.031 1e-5 -13.314 7.5685-24.826 18.281-28.594-3.051-1.2384-6.2993-1.9375-9.6875-1.9375z" fill="url(#b)" filter="url(#a)"/>
  </g>
  <g transform="matrix(.72867 -.4207 .4207 .72867 160.46 -88.81)">
   <path d="m-294.44 603.94c-18.802 0-34.063 18.195-34.062 40.625s15.261 40.625 34.062 40.625c15.045 0 27.807-11.663 32.312-27.812-3.9844 4.4231-9.3198 7.125-15.188 7.125-12.316 2e-5 -22.312-11.932-22.312-26.625s9.9963-26.594 22.312-26.594c0.87611 0 1.7439 0.03887 2.5938 0.15625-5.5667-4.7269-12.37-7.5-19.719-7.5z"/>
   <path transform="matrix(1 0 0 .95349 0 28.591)" d="m-294.44 607.34c-16.599 0-30.656 16.338-30.656 37.219s14.058 37.219 30.656 37.219c10.057 0 19.125-5.9647 24.75-15.344-2.4187 0.88149-4.9507 1.4688-7.625 1.4688-14.522 2e-5 -25.719-13.79-25.719-30.031 1e-5 -13.314 7.5685-24.826 18.281-28.594-3.051-1.2384-6.2993-1.9375-9.6875-1.9375z" fill="url(#b)" filter="url(#a)"/>
  </g>
  <g transform="matrix(-.52998 .30598 .30598 .52998 -112.44 297.74)">
   <path d="m-294.44 603.94c-18.802 0-34.063 18.195-34.062 40.625s15.261 40.625 34.062 40.625c15.045 0 27.807-11.663 32.312-27.812-3.9844 4.4231-9.3198 7.125-15.188 7.125-12.316 2e-5 -22.312-11.932-22.312-26.625s9.9963-26.594 22.312-26.594c0.87611 0 1.7439 0.03887 2.5938 0.15625-5.5667-4.7269-12.37-7.5-19.719-7.5z"/>
   <path transform="matrix(1 0 0 .95349 0 28.591)" d="m-294.44 607.34c-16.599 0-30.656 16.338-30.656 37.219s14.058 37.219 30.656 37.219c10.057 0 19.125-5.9647 24.75-15.344-2.4187 0.88149-4.9507 1.4688-7.625 1.4688-14.522 2e-5 -25.719-13.79-25.719-30.031 1e-5 -13.314 7.5685-24.826 18.281-28.594-3.051-1.2384-6.2993-1.9375-9.6875-1.9375z" fill="url(#b)" filter="url(#a)"/>
  </g>
  <g transform="matrix(.52998 -.30598 .30598 .52998 174.77 77.387)">
   <path d="m-294.44 603.94c-18.802 0-34.063 18.195-34.062 40.625s15.261 40.625 34.062 40.625c15.045 0 27.807-11.663 32.312-27.812-3.9844 4.4231-9.3198 7.125-15.188 7.125-12.316 2e-5 -22.312-11.932-22.312-26.625s9.9963-26.594 22.312-26.594c0.87611 0 1.7439 0.03887 2.5938 0.15625-5.5667-4.7269-12.37-7.5-19.719-7.5z"/>
   <path transform="matrix(1 0 0 .95349 0 28.591)" d="m-294.44 607.34c-16.599 0-30.656 16.338-30.656 37.219s14.058 37.219 30.656 37.219c10.057 0 19.125-5.9647 24.75-15.344-2.4187 0.88149-4.9507 1.4688-7.625 1.4688-14.522 2e-5 -25.719-13.79-25.719-30.031 1e-5 -13.314 7.5685-24.826 18.281-28.594-3.051-1.2384-6.2993-1.9375-9.6875-1.9375z" fill="url(#b)" filter="url(#a)"/>
  </g>
  <g transform="matrix(.52998 -.30598 .30598 .52998 130.42 77.577)">
   <path d="m-294.44 603.94c-18.802 0-34.063 18.195-34.062 40.625s15.261 40.625 34.062 40.625c15.045 0 27.807-11.663 32.312-27.812-3.9844 4.4231-9.3198 7.125-15.188 7.125-12.316 2e-5 -22.312-11.932-22.312-26.625s9.9963-26.594 22.312-26.594c0.87611 0 1.7439 0.03887 2.5938 0.15625-5.5667-4.7269-12.37-7.5-19.719-7.5z"/>
   <path transform="matrix(1 0 0 .95349 0 28.591)" d="m-294.44 607.34c-16.599 0-30.656 16.338-30.656 37.219s14.058 37.219 30.656 37.219c10.057 0 19.125-5.9647 24.75-15.344-2.4187 0.88149-4.9507 1.4688-7.625 1.4688-14.522 2e-5 -25.719-13.79-25.719-30.031 1e-5 -13.314 7.5685-24.826 18.281-28.594-3.051-1.2384-6.2993-1.9375-9.6875-1.9375z" fill="url(#b)" filter="url(#a)"/>
  </g>
  <g transform="matrix(-.52998 .30598 .30598 .52998 -103.99 350.49)">
   <path d="m-294.44 603.94c-18.802 0-34.063 18.195-34.062 40.625s15.261 40.625 34.062 40.625c15.045 0 27.807-11.663 32.312-27.812-3.9844 4.4231-9.3198 7.125-15.188 7.125-12.316 2e-5 -22.312-11.932-22.312-26.625s9.9963-26.594 22.312-26.594c0.87611 0 1.7439 0.03887 2.5938 0.15625-5.5667-4.7269-12.37-7.5-19.719-7.5z"/>
   <path transform="matrix(1 0 0 .95349 0 28.591)" d="m-294.44 607.34c-16.599 0-30.656 16.338-30.656 37.219s14.058 37.219 30.656 37.219c10.057 0 19.125-5.9647 24.75-15.344-2.4187 0.88149-4.9507 1.4688-7.625 1.4688-14.522 2e-5 -25.719-13.79-25.719-30.031 1e-5 -13.314 7.5685-24.826 18.281-28.594-3.051-1.2384-6.2993-1.9375-9.6875-1.9375z" fill="url(#an)" filter="url(#a)"/>
  </g>
  <g transform="matrix(.52998 -.30598 .30598 .52998 212.72 138.33)">
   <path d="m-294.44 603.94c-18.802 0-34.063 18.195-34.062 40.625s15.261 40.625 34.062 40.625c15.045 0 27.807-11.663 32.312-27.812-3.9844 4.4231-9.3198 7.125-15.188 7.125-12.316 2e-5 -22.312-11.932-22.312-26.625s9.9963-26.594 22.312-26.594c0.87611 0 1.7439 0.03887 2.5938 0.15625-5.5667-4.7269-12.37-7.5-19.719-7.5z"/>
   <path transform="matrix(1 0 0 .95349 0 28.591)" d="m-294.44 607.34c-16.599 0-30.656 16.338-30.656 37.219s14.058 37.219 30.656 37.219c10.057 0 19.125-5.9647 24.75-15.344-2.4187 0.88149-4.9507 1.4688-7.625 1.4688-14.522 2e-5 -25.719-13.79-25.719-30.031 1e-5 -13.314 7.5685-24.826 18.281-28.594-3.051-1.2384-6.2993-1.9375-9.6875-1.9375z" fill="url(#b)" filter="url(#a)"/>
  </g>
  <g transform="matrix(-.52998 .30598 .30598 .52998 -152.75 295.11)">
   <path d="m-294.44 603.94c-18.802 0-34.063 18.195-34.062 40.625s15.261 40.625 34.062 40.625c15.045 0 27.807-11.663 32.312-27.812-3.9844 4.4231-9.3198 7.125-15.188 7.125-12.316 2e-5 -22.312-11.932-22.312-26.625s9.9963-26.594 22.312-26.594c0.87611 0 1.7439 0.03887 2.5938 0.15625-5.5667-4.7269-12.37-7.5-19.719-7.5z"/>
   <path transform="matrix(1 0 0 .95349 0 28.591)" d="m-294.44 607.34c-16.599 0-30.656 16.338-30.656 37.219s14.058 37.219 30.656 37.219c10.057 0 19.125-5.9647 24.75-15.344-2.4187 0.88149-4.9507 1.4688-7.625 1.4688-14.522 2e-5 -25.719-13.79-25.719-30.031 1e-5 -13.314 7.5685-24.826 18.281-28.594-3.051-1.2384-6.2993-1.9375-9.6875-1.9375z" fill="url(#b)" filter="url(#a)"/>
  </g>
  <g transform="matrix(-.52998 .30598 .30598 .52998 -97.305 308.19)">
   <path d="m-294.44 603.94c-18.802 0-34.063 18.195-34.062 40.625s15.261 40.625 34.062 40.625c15.045 0 27.807-11.663 32.312-27.812-3.9844 4.4231-9.3198 7.125-15.188 7.125-12.316 2e-5 -22.312-11.932-22.312-26.625s9.9963-26.594 22.312-26.594c0.87611 0 1.7439 0.03887 2.5938 0.15625-5.5667-4.7269-12.37-7.5-19.719-7.5z"/>
   <path transform="matrix(1 0 0 .95349 0 28.591)" d="m-294.44 607.34c-16.599 0-30.656 16.338-30.656 37.219s14.058 37.219 30.656 37.219c10.057 0 19.125-5.9647 24.75-15.344-2.4187 0.88149-4.9507 1.4688-7.625 1.4688-14.522 2e-5 -25.719-13.79-25.719-30.031 1e-5 -13.314 7.5685-24.826 18.281-28.594-3.051-1.2384-6.2993-1.9375-9.6875-1.9375z" fill="url(#b)" filter="url(#a)"/>
  </g>
  <g transform="matrix(-.52998 .30598 .30598 .52998 -110.57 341.59)">
   <path d="m-294.44 603.94c-18.802 0-34.063 18.195-34.062 40.625s15.261 40.625 34.062 40.625c15.045 0 27.807-11.663 32.312-27.812-3.9844 4.4231-9.3198 7.125-15.188 7.125-12.316 2e-5 -22.312-11.932-22.312-26.625s9.9963-26.594 22.312-26.594c0.87611 0 1.7439 0.03887 2.5938 0.15625-5.5667-4.7269-12.37-7.5-19.719-7.5z"/>
   <path transform="matrix(1 0 0 .95349 0 28.591)" d="m-294.44 607.34c-16.599 0-30.656 16.338-30.656 37.219s14.058 37.219 30.656 37.219c10.057 0 19.125-5.9647 24.75-15.344-2.4187 0.88149-4.9507 1.4688-7.625 1.4688-14.522 2e-5 -25.719-13.79-25.719-30.031 1e-5 -13.314 7.5685-24.826 18.281-28.594-3.051-1.2384-6.2993-1.9375-9.6875-1.9375z" fill="url(#b)" filter="url(#a)"/>
  </g>
  <g transform="matrix(.52998 -.30598 .30598 .52998 203.66 163.04)">
   <path d="m-294.44 603.94c-18.802 0-34.063 18.195-34.062 40.625s15.261 40.625 34.062 40.625c15.045 0 27.807-11.663 32.312-27.812-3.9844 4.4231-9.3198 7.125-15.188 7.125-12.316 2e-5 -22.312-11.932-22.312-26.625s9.9963-26.594 22.312-26.594c0.87611 0 1.7439 0.03887 2.5938 0.15625-5.5667-4.7269-12.37-7.5-19.719-7.5z"/>
   <path transform="matrix(1 0 0 .95349 4.4271e-8 28.591)" d="m-294.44 607.34c-16.599 0-30.656 16.338-30.656 37.219s14.058 37.219 30.656 37.219c10.057 0 19.125-5.9647 24.75-15.344-2.4187 0.88149-4.9507 1.4688-7.625 1.4688-14.522 2e-5 -25.719-13.79-25.719-30.031 1e-5 -13.314 7.5685-24.826 18.281-28.594-3.051-1.2384-6.2993-1.9375-9.6875-1.9375z" fill="url(#am)" filter="url(#a)"/>
  </g>
  <g transform="matrix(.52998 -.30598 .30598 .52998 175.32 117.96)">
   <path d="m-294.44 603.94c-18.802 0-34.063 18.195-34.062 40.625s15.261 40.625 34.062 40.625c15.045 0 27.807-11.663 32.312-27.812-3.9844 4.4231-9.3198 7.125-15.188 7.125-12.316 2e-5 -22.312-11.932-22.312-26.625s9.9963-26.594 22.312-26.594c0.87611 0 1.7439 0.03887 2.5938 0.15625-5.5667-4.7269-12.37-7.5-19.719-7.5z"/>
   <path transform="matrix(1 0 0 .95349 0 28.591)" d="m-294.44 607.34c-16.599 0-30.656 16.338-30.656 37.219s14.058 37.219 30.656 37.219c10.057 0 19.125-5.9647 24.75-15.344-2.4187 0.88149-4.9507 1.4688-7.625 1.4688-14.522 2e-5 -25.719-13.79-25.719-30.031 1e-5 -13.314 7.5685-24.826 18.281-28.594-3.051-1.2384-6.2993-1.9375-9.6875-1.9375z" fill="url(#al)" filter="url(#a)"/>
  </g>
  <g transform="matrix(.52998 -.30598 .30598 .52998 140.26 51.942)">
   <path d="m-294.44 603.94c-18.802 0-34.063 18.195-34.062 40.625s15.261 40.625 34.062 40.625c15.045 0 27.807-11.663 32.312-27.812-3.9844 4.4231-9.3198 7.125-15.188 7.125-12.316 2e-5 -22.312-11.932-22.312-26.625s9.9963-26.594 22.312-26.594c0.87611 0 1.7439 0.03887 2.5938 0.15625-5.5667-4.7269-12.37-7.5-19.719-7.5z"/>
   <path transform="matrix(1 0 0 .95349 0 28.591)" d="m-294.44 607.34c-16.599 0-30.656 16.338-30.656 37.219s14.058 37.219 30.656 37.219c10.057 0 19.125-5.9647 24.75-15.344-2.4187 0.88149-4.9507 1.4688-7.625 1.4688-14.522 2e-5 -25.719-13.79-25.719-30.031 1e-5 -13.314 7.5685-24.826 18.281-28.594-3.051-1.2384-6.2993-1.9375-9.6875-1.9375z" fill="url(#b)" filter="url(#a)"/>
  </g>
  <g transform="matrix(.52998 -.30598 .30598 .52998 191.81 139.62)">
   <path d="m-294.44 603.94c-18.802 0-34.063 18.195-34.062 40.625s15.261 40.625 34.062 40.625c15.045 0 27.807-11.663 32.312-27.812-3.9844 4.4231-9.3198 7.125-15.188 7.125-12.316 2e-5 -22.312-11.932-22.312-26.625s9.9963-26.594 22.312-26.594c0.87611 0 1.7439 0.03887 2.5938 0.15625-5.5667-4.7269-12.37-7.5-19.719-7.5z"/>
   <path transform="matrix(1 0 0 .95349 0 28.591)" d="m-294.44 607.34c-16.599 0-30.656 16.338-30.656 37.219s14.058 37.219 30.656 37.219c10.057 0 19.125-5.9647 24.75-15.344-2.4187 0.88149-4.9507 1.4688-7.625 1.4688-14.522 2e-5 -25.719-13.79-25.719-30.031 1e-5 -13.314 7.5685-24.826 18.281-28.594-3.051-1.2384-6.2993-1.9375-9.6875-1.9375z" fill="url(#ak)" filter="url(#a)"/>
  </g>
  <g transform="matrix(.52998 -.30598 .30598 .52998 172.25 45.891)">
   <path d="m-294.44 603.94c-18.802 0-34.063 18.195-34.062 40.625s15.261 40.625 34.062 40.625c15.045 0 27.807-11.663 32.312-27.812-3.9844 4.4231-9.3198 7.125-15.188 7.125-12.316 2e-5 -22.312-11.932-22.312-26.625s9.9963-26.594 22.312-26.594c0.87611 0 1.7439 0.03887 2.5938 0.15625-5.5667-4.7269-12.37-7.5-19.719-7.5z"/>
   <path transform="matrix(1 0 0 .95349 0 28.591)" d="m-294.44 607.34c-16.599 0-30.656 16.338-30.656 37.219s14.058 37.219 30.656 37.219c10.057 0 19.125-5.9647 24.75-15.344-2.4187 0.88149-4.9507 1.4688-7.625 1.4688-14.522 2e-5 -25.719-13.79-25.719-30.031 1e-5 -13.314 7.5685-24.826 18.281-28.594-3.051-1.2384-6.2993-1.9375-9.6875-1.9375z" fill="url(#b)" filter="url(#a)"/>
  </g>
  <g transform="matrix(.52998 -.30598 .30598 .52998 145.92 75.376)">
   <path d="m-294.44 603.94c-18.802 0-34.063 18.195-34.062 40.625s15.261 40.625 34.062 40.625c15.045 0 27.807-11.663 32.312-27.812-3.9844 4.4231-9.3198 7.125-15.188 7.125-12.316 2e-5 -22.312-11.932-22.312-26.625s9.9963-26.594 22.312-26.594c0.87611 0 1.7439 0.03887 2.5938 0.15625-5.5667-4.7269-12.37-7.5-19.719-7.5z"/>
   <path transform="matrix(1 0 0 .95349 0 28.591)" d="m-294.44 607.34c-16.599 0-30.656 16.338-30.656 37.219s14.058 37.219 30.656 37.219c10.057 0 19.125-5.9647 24.75-15.344-2.4187 0.88149-4.9507 1.4688-7.625 1.4688-14.522 2e-5 -25.719-13.79-25.719-30.031 1e-5 -13.314 7.5685-24.826 18.281-28.594-3.051-1.2384-6.2993-1.9375-9.6875-1.9375z" fill="url(#b)" filter="url(#a)"/>
  </g>
  <g transform="matrix(.52998 -.30598 .30598 .52998 155.97 102.23)">
   <path d="m-294.44 603.94c-18.802 0-34.063 18.195-34.062 40.625s15.261 40.625 34.062 40.625c15.045 0 27.807-11.663 32.312-27.812-3.9844 4.4231-9.3198 7.125-15.188 7.125-12.316 2e-5 -22.312-11.932-22.312-26.625s9.9963-26.594 22.312-26.594c0.87611 0 1.7439 0.03887 2.5938 0.15625-5.5667-4.7269-12.37-7.5-19.719-7.5z"/>
   <path transform="matrix(1 0 0 .95349 0 28.591)" d="m-294.44 607.34c-16.599 0-30.656 16.338-30.656 37.219s14.058 37.219 30.656 37.219c10.057 0 19.125-5.9647 24.75-15.344-2.4187 0.88149-4.9507 1.4688-7.625 1.4688-14.522 2e-5 -25.719-13.79-25.719-30.031 1e-5 -13.314 7.5685-24.826 18.281-28.594-3.051-1.2384-6.2993-1.9375-9.6875-1.9375z" fill="url(#b)" filter="url(#a)"/>
  </g>
  <g transform="matrix(.52998 -.30598 .30598 .52998 204.15 117.21)">
   <path d="m-294.44 603.94c-18.802 0-34.063 18.195-34.062 40.625s15.261 40.625 34.062 40.625c15.045 0 27.807-11.663 32.312-27.812-3.9844 4.4231-9.3198 7.125-15.188 7.125-12.316 2e-5 -22.312-11.932-22.312-26.625s9.9963-26.594 22.312-26.594c0.87611 0 1.7439 0.03887 2.5938 0.15625-5.5667-4.7269-12.37-7.5-19.719-7.5z"/>
   <path transform="matrix(1 0 0 .95349 0 28.591)" d="m-294.44 607.34c-16.599 0-30.656 16.338-30.656 37.219s14.058 37.219 30.656 37.219c10.057 0 19.125-5.9647 24.75-15.344-2.4187 0.88149-4.9507 1.4688-7.625 1.4688-14.522 2e-5 -25.719-13.79-25.719-30.031 1e-5 -13.314 7.5685-24.826 18.281-28.594-3.051-1.2384-6.2993-1.9375-9.6875-1.9375z" fill="url(#b)" filter="url(#a)"/>
  </g>
  <g transform="matrix(.52998 -.30598 .30598 .52998 132.9 85.782)">
   <path d="m-294.44 603.94c-18.802 0-34.063 18.195-34.062 40.625s15.261 40.625 34.062 40.625c15.045 0 27.807-11.663 32.312-27.812-3.9844 4.4231-9.3198 7.125-15.188 7.125-12.316 2e-5 -22.312-11.932-22.312-26.625s9.9963-26.594 22.312-26.594c0.87611 0 1.7439 0.03887 2.5938 0.15625-5.5667-4.7269-12.37-7.5-19.719-7.5z"/>
   <path transform="matrix(1 0 0 .95349 0 28.591)" d="m-294.44 607.34c-16.599 0-30.656 16.338-30.656 37.219s14.058 37.219 30.656 37.219c10.057 0 19.125-5.9647 24.75-15.344-2.4187 0.88149-4.9507 1.4688-7.625 1.4688-14.522 2e-5 -25.719-13.79-25.719-30.031 1e-5 -13.314 7.5685-24.826 18.281-28.594-3.051-1.2384-6.2993-1.9375-9.6875-1.9375z" fill="url(#b)" filter="url(#a)"/>
  </g>
  <g transform="matrix(-.52998 .30598 .30598 .52998 -104.48 272.98)">
   <path d="m-294.44 603.94c-18.802 0-34.063 18.195-34.062 40.625s15.261 40.625 34.062 40.625c15.045 0 27.807-11.663 32.312-27.812-3.9844 4.4231-9.3198 7.125-15.188 7.125-12.316 2e-5 -22.312-11.932-22.312-26.625s9.9963-26.594 22.312-26.594c0.87611 0 1.7439 0.03887 2.5938 0.15625-5.5667-4.7269-12.37-7.5-19.719-7.5z"/>
   <path transform="matrix(1 0 0 .95349 0 28.591)" d="m-294.44 607.34c-16.599 0-30.656 16.338-30.656 37.219s14.058 37.219 30.656 37.219c10.057 0 19.125-5.9647 24.75-15.344-2.4187 0.88149-4.9507 1.4688-7.625 1.4688-14.522 2e-5 -25.719-13.79-25.719-30.031 1e-5 -13.314 7.5685-24.826 18.281-28.594-3.051-1.2384-6.2993-1.9375-9.6875-1.9375z" fill="url(#b)" filter="url(#a)"/>
  </g>
  <g transform="matrix(-.52998 .30598 .30598 .52998 -121.62 318.28)">
   <path d="m-294.44 603.94c-18.802 0-34.063 18.195-34.062 40.625s15.261 40.625 34.062 40.625c15.045 0 27.807-11.663 32.312-27.812-3.9844 4.4231-9.3198 7.125-15.188 7.125-12.316 2e-5 -22.312-11.932-22.312-26.625s9.9963-26.594 22.312-26.594c0.87611 0 1.7439 0.03887 2.5938 0.15625-5.5667-4.7269-12.37-7.5-19.719-7.5z"/>
   <path transform="matrix(1 0 0 .95349 0 28.591)" d="m-294.44 607.34c-16.599 0-30.656 16.338-30.656 37.219s14.058 37.219 30.656 37.219c10.057 0 19.125-5.9647 24.75-15.344-2.4187 0.88149-4.9507 1.4688-7.625 1.4688-14.522 2e-5 -25.719-13.79-25.719-30.031 1e-5 -13.314 7.5685-24.826 18.281-28.594-3.051-1.2384-6.2993-1.9375-9.6875-1.9375z" fill="url(#aj)" filter="url(#a)"/>
  </g>
  <g transform="matrix(.52998 -.30598 .30598 .52998 194.8 126.07)">
   <path d="m-294.44 603.94c-18.802 0-34.063 18.195-34.062 40.625s15.261 40.625 34.062 40.625c15.045 0 27.807-11.663 32.312-27.812-3.9844 4.4231-9.3198 7.125-15.188 7.125-12.316 2e-5 -22.312-11.932-22.312-26.625s9.9963-26.594 22.312-26.594c0.87611 0 1.7439 0.03887 2.5938 0.15625-5.5667-4.7269-12.37-7.5-19.719-7.5z"/>
   <path transform="matrix(1 0 0 .95349 0 28.591)" d="m-294.44 607.34c-16.599 0-30.656 16.338-30.656 37.219s14.058 37.219 30.656 37.219c10.057 0 19.125-5.9647 24.75-15.344-2.4187 0.88149-4.9507 1.4688-7.625 1.4688-14.522 2e-5 -25.719-13.79-25.719-30.031 1e-5 -13.314 7.5685-24.826 18.281-28.594-3.051-1.2384-6.2993-1.9375-9.6875-1.9375z" fill="url(#ai)" filter="url(#a)"/>
  </g>
  <g transform="matrix(-.52998 .30598 .30598 .52998 -108.8 332.72)">
   <path d="m-294.44 603.94c-18.802 0-34.063 18.195-34.062 40.625s15.261 40.625 34.062 40.625c15.045 0 27.807-11.663 32.312-27.812-3.9844 4.4231-9.3198 7.125-15.188 7.125-12.316 2e-5 -22.312-11.932-22.312-26.625s9.9963-26.594 22.312-26.594c0.87611 0 1.7439 0.03887 2.5938 0.15625-5.5667-4.7269-12.37-7.5-19.719-7.5z"/>
   <path transform="matrix(1 0 0 .95349 0 28.591)" d="m-294.44 607.34c-16.599 0-30.656 16.338-30.656 37.219s14.058 37.219 30.656 37.219c10.057 0 19.125-5.9647 24.75-15.344-2.4187 0.88149-4.9507 1.4688-7.625 1.4688-14.522 2e-5 -25.719-13.79-25.719-30.031 1e-5 -13.314 7.5685-24.826 18.281-28.594-3.051-1.2384-6.2993-1.9375-9.6875-1.9375z" fill="url(#ah)" filter="url(#a)"/>
  </g>
  <g transform="matrix(.52998 -.30598 .30598 .52998 150.53 100.51)">
   <path d="m-294.44 603.94c-18.802 0-34.063 18.195-34.062 40.625s15.261 40.625 34.062 40.625c15.045 0 27.807-11.663 32.312-27.812-3.9844 4.4231-9.3198 7.125-15.188 7.125-12.316 2e-5 -22.312-11.932-22.312-26.625s9.9963-26.594 22.312-26.594c0.87611 0 1.7439 0.03887 2.5938 0.15625-5.5667-4.7269-12.37-7.5-19.719-7.5z"/>
   <path transform="matrix(1 0 0 .95349 0 28.591)" d="m-294.44 607.34c-16.599 0-30.656 16.338-30.656 37.219s14.058 37.219 30.656 37.219c10.057 0 19.125-5.9647 24.75-15.344-2.4187 0.88149-4.9507 1.4688-7.625 1.4688-14.522 2e-5 -25.719-13.79-25.719-30.031 1e-5 -13.314 7.5685-24.826 18.281-28.594-3.051-1.2384-6.2993-1.9375-9.6875-1.9375z" fill="url(#b)" filter="url(#a)"/>
  </g>
  <g transform="matrix(-.52998 .30598 .30598 .52998 -160.61 266.62)">
   <path d="m-294.44 603.94c-18.802 0-34.063 18.195-34.062 40.625s15.261 40.625 34.062 40.625c15.045 0 27.807-11.663 32.312-27.812-3.9844 4.4231-9.3198 7.125-15.188 7.125-12.316 2e-5 -22.312-11.932-22.312-26.625s9.9963-26.594 22.312-26.594c0.87611 0 1.7439 0.03887 2.5938 0.15625-5.5667-4.7269-12.37-7.5-19.719-7.5z"/>
   <path transform="matrix(1 0 0 .95349 0 28.591)" d="m-294.44 607.34c-16.599 0-30.656 16.338-30.656 37.219s14.058 37.219 30.656 37.219c10.057 0 19.125-5.9647 24.75-15.344-2.4187 0.88149-4.9507 1.4688-7.625 1.4688-14.522 2e-5 -25.719-13.79-25.719-30.031 1e-5 -13.314 7.5685-24.826 18.281-28.594-3.051-1.2384-6.2993-1.9375-9.6875-1.9375z" fill="url(#b)" filter="url(#a)"/>
  </g>
  <g transform="matrix(.52998 -.30598 .30598 .52998 148.76 101.65)">
   <path d="m-294.44 603.94c-18.802 0-34.063 18.195-34.062 40.625s15.261 40.625 34.062 40.625c15.045 0 27.807-11.663 32.312-27.812-3.9844 4.4231-9.3198 7.125-15.188 7.125-12.316 2e-5 -22.312-11.932-22.312-26.625s9.9963-26.594 22.312-26.594c0.87611 0 1.7439 0.03887 2.5938 0.15625-5.5667-4.7269-12.37-7.5-19.719-7.5z"/>
   <path transform="matrix(1 0 0 .95349 0 28.591)" d="m-294.44 607.34c-16.599 0-30.656 16.338-30.656 37.219s14.058 37.219 30.656 37.219c10.057 0 19.125-5.9647 24.75-15.344-2.4187 0.88149-4.9507 1.4688-7.625 1.4688-14.522 2e-5 -25.719-13.79-25.719-30.031 1e-5 -13.314 7.5685-24.826 18.281-28.594-3.051-1.2384-6.2993-1.9375-9.6875-1.9375z" fill="url(#ag)" filter="url(#a)"/>
  </g>
  <path d="m301.19 749.19-85.062 7.2188c-7.1179 11.714-21.611 34.2-27.438 86.312-0.25411 2.2725-0.12227 4.5777 1.0312 7.5938 2.1641 5.6587 5.1539 11.016 8.625 16.219h80.062c-1.4012-9.6166-2.4172-19.32-3.375-29.031-0.18899-1.9163-0.12495-3.5613 1.375-5.6562 26.064-36.404 24.308-72.156 24.781-82.656z"/>
  <path d="m292.57 750.28-69.438 5.9062c-12.273 18.571-28.028 52.304-26.125 86.188 0.12374 2.1522 0.30438 4.1095 1 6.1562 1.8392 5.4116 5.5622 11.431 10.188 18h63.5c-1.3889-9.0908-2.5293-18.244-3.7188-27.375-0.27191-2.0874-0.36415-4.2921 0.90625-6.5 16.059-27.91 20.397-55.111 23.688-82.375z" fill="#decd87"/>
  <path d="m238.63 754.59-11.969 0.96875c-11.298 18.399-25.614 51.907-23.125 85.688 0.16082 2.1456 0.39126 4.0794 1.0938 6.125 1.9634 5.7171 5.9572 12.126 10.844 19.156h6.4688c-4.456-9.4663-7.923-18.106-9.0312-25.844-0.41114-2.8709-0.17765-5.6166 0.15625-8.625 3.0633-27.305 13.486-54.447 25.562-77.469z" fill="#a0892c" filter="url(#n)"/>
  <path d="m217.6 554.85 100.1-57.794c25.382 50.755 13.751 114.91 76.567 152.11l-100.1 57.794c-12.42-58.269-38.419-108.7-76.566-152.11z"/>
  <path d="m222.81 551.84 81.765-47.207c25.92 50.444 20.976 110.74 78.113 151.22 8.5242 77.96-30.761 72.773-81.765 47.207-15.336-56.586-41.763-106.77-78.113-151.22z" fill="#decd87"/>
  <path transform="matrix(1.617 -.93356 .88575 1.5916 -1969 454.59)" d="m1042.2 568.41c-6.4532 0.3086-12.703 4.4934-17.812 9.9688s-9.094 12.313-10.625 18.562c-5.0027 20.419-2.4214 39.701-0.5313 55.719 1.1989 10.161 5.5044 22.738 7.9063 32.188 5.0247 19.768 9.5842 28.984 16.437 36.938 4.9173 5.707 12.548 6.6737 18.344 5.3438 3.837-0.88054 7.527-2.305 10.281-5.125s4.3889-6.9591 4.3438-12.688c-0.075-9.5145 3.7078-18.081 7.75-24.656 4.7114-7.6633 7.7654-18.233 8.9062-28.938s0.3903-21.553-2.875-29.875c-2.787-7.1031-6.75-12.433-6.75-22.656 0-7.5525-5.5817-16.089-12.594-22.969s-15.507-12.16-22.781-11.812z" fill-rule="evenodd"/>
  <path d="m284.7 587.67c26.322 26.322 41.768 36.028 59.994 41.862 11.979 3.835 24.358-1.4274 32.071-8.4404 10.724-9.7515 17.429-21.201 7.4059-38.234-9.2716-15.755-10.751-33.672-9.996-48.338 1.6436-31.931-17.7-77.241-42.558-96.336-10.735-8.2461-23.029-13.387-32.804-30.319-12.116-20.985-65.778-33.074-86.192-20.02-18.598 11.892-37.26 54.3-31.354 75.57 10.129 36.477 31.742 64.218 49.575 87.806 10.934 14.462 41.039 23.628 53.859 36.448z" fill="#decd87" fill-rule="evenodd"/>
  <path transform="matrix(1.617 -.93356 .93356 1.617 -1250.4 3.2571)" d="m614.29 623.06c4.3781 15.811-0.0743 41.335-9.2187 55.5-4.3093 6.6754-8.5909 15.473-9.0937 25.375-0.5438 10.705-6.3891 14.236-13.438 15.906-0.5548 0.13145-1.1349 0.26497-1.7187 0.34375 2.341 0.28781 4.6638 0.14595 6.75-0.3125 7.395-1.6251 13.429-5.0835 13.344-15.5-0.0791-9.6352 3.9234-18.192 8.0938-24.688 9.0796-14.142 12.162-39.951 5.9062-55.219-0.1954-0.47696-0.4158-0.93766-0.625-1.4062z" fill="#504416" fill-rule="evenodd" filter="url(#as)"/>
  <path d="m306.39 562.89c2.0287 0.35695 4.0756 0.65234 6.1194 0.91364 18.42 2.3543 35.703-6.8785 40.349-22.42 3.1938 12.124 4.3037 29.585-5.5674 35.284-10.443 6.0295-27.553-4.0084-40.901-13.779z" fill-rule="evenodd"/>
  <path d="m313.99 568.13c11.749 7.6329 24.751 13.468 33.293 8.5365 4.4305-2.558 6.6203-7.4988 7.4387-13.256-5.5005-3.2346-13.743-3.8828-22.936-1.917 1.7162 1.7149 4.2834 3.3856 8.3702 5.7452 3.7364 2.1574 4.8539 9.6242-2.8663 3.2045-4.5366-3.7728-10.149-5.6622-14.777-6.2234-2.8193 1.0715-5.6897 2.3972-8.5225 3.9099z" fill="#f00"/>
  <path d="m263.41 528.01c4.3394 16.195 45.528 17.647 67.34 8.0902 14.764-6.4686 26.484-20.903 23.194-33.181-4.3247-16.14 7.6041-3.4614 5.0243 11.216-3.2699 18.603-27.004 33.457-49.946 34.272-16.158 0.57364-31.728-1.0584-42.301-8.7194-7.0916-5.1382-5.2436-18.888-3.3116-11.677z" fill-rule="evenodd"/>
  <path d="m262.88 542.93c1.1e-4 -8.2234 8.6409-0.05048 10.304 0.39507 6.082 1.6297 28.834 23.251 45.181 32.689 10.242 5.9134 33.449 15.995 39.968-8.3353 3.5106-13.101-6.0162-34.054-2.2387-48.152 3.8892-14.515-8.6159 4.461-4.0852 18.778 3.8038 12.021 6.0167 32.164-4.7196 38.362-16.709 9.6472-50.416-21.885-58.627-27.538-11.012-7.5815-19.277-14.267-25.882-15.097-2.649-0.33293 0.09972 11.568 0.09969 8.8985z" fill-rule="evenodd"/>
  <path d="m299.89 557.94c2.0161 1.5756 4.1741 3.2161 6.4631 4.8924 0.01476 0.01101 0.01424 0.03962 0.02917 0.05053 2.0287 0.35695 4.0756 0.65234 6.1194 0.91364 18.436 2.3565 35.773-6.882 40.4-22.449-0.27869-1.057-0.58428-2.0934-0.88924-3.0574-0.39335-1.2426-0.61847-2.5082-0.77689-3.796-3.2522 17.282-21.554 27.707-41.096 25.209-3.443-0.44005-6.8657-1.0348-10.249-1.7636z" fill-rule="evenodd"/>
  <path d="m285.91 547.15c0.95815 0.67222 1.7556 1.2872 2.759 1.978 2.1928 1.5097 6.2007 4.8917 11.221 8.8157 3.3831 0.72876 6.8056 1.3236 10.249 1.7636 19.512 2.4939 37.781-7.8962 41.075-25.13-0.211-1.6702-0.24542-3.3845-0.14554-5.0364-9.5406 10.816-25.977 18.318-42.051 18.888-8.0328 0.28511-15.907-0.00461-23.107-1.2794z" fill="#fff" fill-rule="evenodd"/>
  <path d="m366.74 573.91c-1.5107-5.6377-3.6256-7.2246-2.5621-2.177 4.4609 21.171-17.829 30.574-34.198 21.123-6.0657-3.5021-1.5098 1.8078 1.4271 3.725 17.053 11.132 41.249-0.5934 35.333-22.671z" fill-rule="evenodd"/>
  <path transform="matrix(5.1028 -3.335 4.8868 5.2086 -7498.9 338.2)" d="m930.04 619.47a3.9165 3.9165 0 1 1 -7.833 0 3.9165 3.9165 0 1 1 7.833 0z"/>
  <path transform="matrix(4.306 -2.8212 4.1867 4.5025 -6328.1 299.85)" d="m930.04 619.47a3.9165 3.9165 0 1 1 -7.833 0 3.9165 3.9165 0 1 1 7.833 0z" fill="#fff"/>
  <path transform="matrix(1.617 -.93356 .93356 1.617 -1828.6 337.08)" d="m930.04 619.47a3.9165 3.9165 0 1 1 -7.833 0 3.9165 3.9165 0 1 1 7.833 0z"/>
  <path transform="matrix(4.3511 -2.8438 4.167 4.4413 -6314.4 325.8)" d="m930.04 619.47a3.9165 3.9165 0 1 1 -7.833 0 3.9165 3.9165 0 1 1 7.833 0z"/>
  <path transform="matrix(3.6717 -2.4056 3.57 3.8392 -5316 293.1)" d="m930.04 619.47a3.9165 3.9165 0 1 1 -7.833 0 3.9165 3.9165 0 1 1 7.833 0z" fill="#fff"/>
  <path transform="matrix(1.3788 -.79604 .79604 1.3788 -1479.3 324.85)" d="m930.04 619.47a3.9165 3.9165 0 1 1 -7.833 0 3.9165 3.9165 0 1 1 7.833 0z"/>
  <path d="m271.83 432.39c-1.3365 0.41343-2.2312 1.5229-2.7691 2.6094s-0.81714 2.3038-0.95262 3.6492c-0.2706 2.6906 0.07199 5.9453 1.1119 9.4642 2.08 7.0376 7.0713 15.068 16.243 20.132 6.364 3.5132 10.853 9.7734 12.98 15.413 1.0634 2.8199 1.4854 5.5044 1.3996 7.4116s-0.63071 2.7222-1.105 2.996c-2.1414 1.2363-3.3257 3.5147-3.6624 5.7527s0.09279 4.5403 1.2148 6.575 3.0636 3.7743 5.6483 4.3522 5.6441 0.0427 8.933-1.8562c4.1862-2.4169 5.1467-5.8736 5.8811-7.1684 0.36722-0.64739 0.5147-0.91235 1.4236-1.2935s2.6678-0.77217 5.671-0.78128c4.301-0.01297 7.6766-1.6492 9.4318-4.5022s1.8021-6.4256 0.80897-9.8321c-1.9865-6.8127-8.2114-13.742-17.31-16.08-19.406-4.9857-29.212-13.694-34.325-21.011s-5.4953-13.064-5.4953-13.064c-0.04051-0.63463-0.3315-1.2209-0.80591-1.6233-1.16-0.94403-2.6906-1.6476-4.3215-1.1432z" fill-rule="evenodd"/>
  <path d="m274.69 435.34s1.0144 26.109 39.7 36.474c16.182 4.336 21.63 26.002 6.7943 26.002-12.42-2e-5 -6.9989 5.3602-14.172 9.5018-11.759 6.7891-20.763-8.3455-11.179-13.879 5.7243-3.3049-1.7781-15.538-14.08-24.948-32.222-24.647-7.0624-65.496-7.0623-33.152z" fill="#decd87" fill-rule="evenodd"/>
  <path d="m229 433.75c8.669-5.005 13.499 4.894 10.19 6.8044-9.8489 5.6862-20.654 13.06-25.135 28.319-6.9079 23.527-9.0939-21.245 14.944-35.123z" fill-rule="evenodd"/>
  <path d="m274.15 410.21c-9.6689 2.5908-6.0848 13.006-2.3943 12.017 10.985-2.9434 23.84-5.3702 37.797 2.2515 21.521 11.751-8.5916-21.453-35.403-14.269z" fill-rule="evenodd"/>
  <path d="m262.64 548.11c3.4715 4.692 6.1602 5.23 3.7915 0.64756-5.6041-10.842-3.5048-22.341 4.8009-28.697 2.8402-2.1764-0.06906-2.5073-3.3175-1.1851-10.337 4.2074-12.02 20.118-5.2749 29.235z" fill-rule="evenodd"/>
  <path d="m264.67 531.12c-0.02332 0.03132-0.02402 0.11263-0.04271 0.15941 0.55498 1.1543 1.2179 2.2905 2.0053 3.3563-0.15526-0.36301-0.30125-0.72678-0.43197-1.0981-0.74342-2.1092-1.2724-2.7648-1.5306-2.4177z" fill="#b3b36e" fill-rule="evenodd" opacity=".60408"/>
  <path d="m378.76176,467.80747c-.02686-.10217-.36801.68935-.83138,1.82748 .35393-.64207.66893-1.28098.83138-1.82748z" fill-rule="evenodd"/>
  <path transform="matrix(3.7566 -2.1689 1.1718 1.4794 -4313.9 1771.9)" d="m1005 674.25c0.9678 21.92-1.0301 43.861-6.25 65.781 0.22462 12.757 1.2068 20.315 6.25 0 4.2928-21.921 4.1546-43.861 0-65.781z" fill="#786721" fill-opacity=".5" filter="url(#d)"/>
  <path transform="matrix(1.617 -.93356 .93356 1.617 -1250.4 3.2571)" d="m589.2 616.24c-0.4219 4.7566 0.8233 11.95 8.7149 19.969 4.4984 4.5708 3.3331 11.996-0.3886 13.531 5.7679 2.0634 7.713-7.8979 1.8886-13.531-8.2907-8.0186-10.16-15.212-10.215-19.969zm0.6861 31.781c-1.3992 0.05998-2.0255 1.1164-3.6154 1.5938 0.5239 0.1412 1.1262 0.21875 1.7598 0.21875 2.0453 0 2.7524-0.93241 3.6525-1.4688-0.7271-0.2766-1.3184-0.36426-1.7969-0.34375z" fill="url(#af)" fill-rule="evenodd" filter="url(#ar)"/>
  <path d="m473.57 575.31c-5.2252 0.12741-10.204 4.2816-11.781 9.3125-15.701 50.096-38.605 44.634-76.438 48.188-2.07 0.20134-3.8755 1.3938-4.8125 3.1875s-0.86577 3.9424 0.1875 5.6875c2.9328 4.8624 2.337 12.12-2.8125 20.688s-14.672 17.714-27.156 24.719-25.445 10.477-35.719 10.562-17.1-2.9838-20.031-7.8438c-1.4001-2.3237-4.2327-3.4693-6.9062-2.7812-26.165 9.392-37.424 20.033-60.75 33.5-19.574 11.301-37.486 62.272-40.969 81.781-0.24502 3.4877 0.74009 9.4082 5.1562 8.5938 24.994-4.6092 61.76 0.62419 91.469 10.688 4.4039 1.4918 10.249 0.37441 10.688-3.0938 0.24371-1.9295 0.48692-3.8371 0.75-5.75 0.096 1.069 0.18003 2.1485 0.1875 3.25 0.07618 11.242 5.6413 20.433 13.75 26.594s18.539 9.8028 29.719 12.219c7.1056 1.5356 14.545 13.236 21.938 18.805h157.47c-15.264-31.732-3-135.9-3-158.4 0-55.99 37.256-61.634 23.656-89.938-6.7997-14.152-32.529-26.228-40.406-35-3.9388-4.3862-7.8552-7.9504-11.75-10.562s-7.8559-4.518-12.438-4.4062z" fill="#000080"/>
  <g transform="translate(637.08 -98.599)">
   <path d="m-192.32 745.89c4.5962-15.326 16.97-68.364 56.496-115.18 2.2747-2.6939 2.9986-5.0904 3.5715-7.9586 11.084-55.496 21.278-110.95 11.468-165.31l71.139-3.8799c-31.961 66.353 5.7505 114.84 4.8414 172.4-0.07478 4.7359-0.86578 8.165-2.0071 11.443-26.172 75.162-49.021 104.5-60.514 119.89l-84.995-11.407z"/>
   <path d="m-183.59 746.5c13.926-39.26 28.856-78.119 55.37-115.02 2.0975-2.9196 2.8852-6.196 3.4454-9.3374 9.8709-55.348 20.33-110.76 13.005-165.18l54.806-2.9891c-26.905 66.077 5.1057 133.72 3.4671 172.47-0.13498 3.1914-0.74015 6.1175-1.469 9.3158-11.519 50.344-40.033 95.911-59.209 120.06l-69.416-9.3133z" fill="#decd87"/>
   <path d="m-72.008 542.3c1.1476 36.091 5.0431 67.979 1 91.812-0.73461 4.3301-2.0228 8.3167-3.5312 12.656-13.723 39.379-34.51 76.6-55.25 107.34l11.969 1.6875c18.166-24.145 45.181-69.719 56.094-120.06 0.69051-3.1984 1.2471-6.1211 1.375-9.3125 0.84562-21.111-7.7581-50.792-11.656-84.125z" fill="#a0892c" filter="url(#n)"/>
   <path d="m-105.85 481.12c3.2934 47.862-6.4989 96.481-15.844 145.03-0.57326 2.9784-1.3409 6.0757-3.3438 8.8438-11.141 15.397-20.191 31.167-28 47.156 9.6344-15.579 21.062-30.928 35.469-45.938 2.6296-2.7396 3.4375-5.8335 3.9688-8.7812 8.8308-48.999 18.342-98.038 7.75-146.31z" fill="url(#ae)" filter="url(#aq)"/>
  </g>
  <g transform="matrix(.61309 -.61309 .61309 .61309 128.18 479.52)">
   <path d="m536.98 222.03c-0.51212 0.41373-1.1304 0.9965-1.8125 1.7188-1.3641 1.4445-3.0265 3.4448-4.8438 5.8438-3.6271 4.7882-7.7941 11.092-10.969 17.188l-0.03125 0.03125c-11.204 17.897-31.011 28.479-51.625 29.719-0.82293 0.04947-1.6293 0.1056-2.4375 0.125-0.89499 0.02147-1.8146 0.01442-2.7188 0h-0.25c-0.68359-0.01597-1.3737-0.08533-2.0938-0.125-5.3346-0.32377-10.517-1.2983-15.406-2.9688-0.87087-0.23335-1.3166-0.24588-1.8281 0.26563-111.35-55.151 33.069-151.24 94.016-51.797z" fill="#decd87"/>
   <g transform="matrix(.71033 1.1442 -1.1442 .71033 567.23 -21.421)">
    <path transform="translate(.25254 1.9792)" d="m189.88 82.156c-8.9838 0.12544-17.158 4.4833-23.156 9.9062h-0.03125c-6.69 6.1283-11.694 9.2966-14.531 10.375 0.07179-0.02137-0.16051 0.07147-0.03125 0.03125l-0.15625 0.0625v-0.03125c-0.83858 0.24699-1.5182 0.34375-1.9375 0.34375h-0.28125l-85.812 0.1875h-1.0625c-5.8682 0-11.406-3.125-16.25-7.9688l-0.03125-0.0625c-6.5914-6.3553-15.805-7.751-24.031-6.375l-0.125 0.03125c-12.091 2.4168-20.998 12.403-23.281 24.5-0.23274 1.2322 0.18521 2.4974 1.1061 3.3484s2.2151 1.1681 3.4251 0.83908l1.125-0.3125 1.8125-0.5h0.0625l16.125-3.2812c0.05311-0.01087 0.07767-0.0912 0.65625 0.375s1.4245 1.4738 2.1562 2.8438c1.4591 2.7314 2.536 6.7591 2.625 9.75 2.7e-4 0.00919-2.5e-4 0.02208 0 0.03125-0.0541 1.2462-0.31504 2.2476-0.53125 2.6875s-0.15044 0.28807-0.125 0.28125l-6.8125 1.7812-0.1875 0.09375h-0.03125l-0.1875 0.0625-12.594 3.375c-1.185 0.31753-2.1303 1.2107-2.5145 2.3758s-0.15551 2.4454 0.60823 3.4054c0.24729 0.30614 0.50479 0.59278 0.75 0.875 3.6359 4.1846 8.2847 7.3683 13.5 9.0625h0.0625c0.01947 0.00646 0.01137 0.02488 0.03125 0.03125h0.03125c4.5539 1.4358 9.3831 1.6356 13.969 0.8125l0.03125-0.03125c4.9081-0.92484 9.6088-2.9648 13.281-6.5 5.6497-5.0153 11.303-10.341 17.281-10.781h48.094c0.17761 0.00256 0.35517-0.00788 0.53125-0.03125h1.1875c0.15541 0.0205 0.31199 0.03094 0.46875 0.03125l35.969 0.1875h0.8125c2.0216 0 3.9756 0.34679 5.9062 1l0.0625 0.03125c4.2283 1.7321 8.4762 5.195 12.281 9l0.09375 0.125c7.4091 6.7734 17.154 8.4357 26.25 6.875l0.09375-0.03125c13.209-2.6402 22.939-13.541 25.438-26.781 0.23274-1.2322-0.18521-2.4974-1.1061-3.3484s-2.2151-1.1681-3.4251-0.83908l-1.25 0.34375-2.3438 0.59375-17.594 3.5938c-0.1899 0.03886-0.36073 0.06773-1.0625-0.5s-1.6424-1.727-2.4688-3.2812c-1.634-3.0735-2.7973-7.5354-2.9062-10.906 0.05731-1.4269 0.31871-2.6376 0.59375-3.2188 0.28327-0.59857 0.29562-0.50998 0.375-0.53125l7.75-2.0312c4e-5 -0.01042 4e-5 -0.02083 0-0.03125l14.188-3.8125c1.185-0.31753 2.1303-1.2107 2.5145-2.3758s0.15551-2.4454-0.60823-3.4054c-0.29939-0.37062-0.57741-0.66693-0.8125-0.9375-3.9859-4.5929-9.0826-8.0554-14.781-9.9062l-0.0625-0.03125c-0.02115-0.00681-0.01053 0.0064-0.03125 0l-0.09375-0.03125c1.4513 0.38551 1.4412 0.36347-0.0625-0.03125v0.03125c-3.0134-1.0496-5.9772-1.4163-8.9375-1.375z"/>
    <path d="m184.33 86.25c-4.8224 0.9087-9.2735 2.8999-12.656 6.1562-10.863 10.457-17.97 14.188-21.625 14.188l-87.171 0.0625c-7.1445 0-13.54-3.7586-18.812-9.0312-4.3332-4.3332-10.668-6.087-16.906-5.875-0.5246 0.01783-1.0379 0.06907-1.5625 0.125 0.30865-0.02003 0.62996-0.03118 0.9375-0.03125 10.148-0.00233 19.596 10.766 21.625 25.188 2.0813 14.793-4.407 28.078-14.594 30.469 4.3585-0.82128 8.3802-2.6195 11.438-5.5625 9.818-9.451 16.228-11.781 19.531-11.781l87.359-0.0625c7.905 0 14.979 5.5098 20.812 11.344 4.7945 4.7945 11.816 6.7346 18.719 6.5 0.58045-0.01972 1.1383-0.06312 1.7188-0.125-0.3415 0.02216-0.69098 0.03117-1.0312 0.03125-11.228 0.00258-21.693-11.918-23.938-27.875-2.3028-16.368 4.8851-31.074 16.156-33.719z" fill="url(#ad)"/>
    <path d="m28.65625,91.75c-.24642.00856-.50623.04171-.75.0625l-.3125.03125h.4375c1.14518-.00027 2.28938.16211 3.40625.4375-.17856-.06-.34951-.1288-.53125-.1875 1.32869.24512 2.24164.6401 3.03125,1.03125l.3125.15625c7.32948,3.37111 13.37835,12.42272 14.9375,23.75 .068.49401.10677.97845.15625,1.46875-.02254-3.57621-.68974-6.96899-1.34375-9.375-2.0935-7.70161-5.5622-10.05054-4.03125-9.34375 .49636.39579 1.01862.821 1.21875,1 5.15859,4.61412 11.41636,8.38057 18.40625,7.9375l88.85875-.6875c.18383.00509.35698.01798.5625,0 3.08275-.26971 8.61601-3.31402 16.8125-13.90625-9.83141,9.84136-16.33664,12.34375-19.78125,12.34375h-.28125l-86.17125.1875h-.71875c-7.14448,0-13.53983-3.75858-18.8125-9.03125-3.79159-3.79159-9.11137-5.6221-14.5625-5.875-.28034-.01301-.56292.00479-.84375,0zm-1.0625.09375-.34375.03125h.21875 .03125c.03217-.00129.06157-.03018.09375-.03125z" filter="url(#bk)"/>
    <path d="m61.844 128.88c-2.7862 0.2234-7.7796 2.7266-15.188 11.5 8.8856-8.1515 14.762-10.219 17.875-10.219h48.375l-50.531-1.2812c-0.16615-0.00421-0.34551-0.01489-0.53125 0z" filter="url(#bj)"/>
    <path d="m69.582 113.62c-2.6628 0.26881-4.7188 2.514-4.7188 5.25 0 2.9184 2.3316 5.2812 5.25 5.2812h78.508c2.9184 0 5.25-2.3629 5.25-5.2812 0-2.736-2.056-4.9812-4.7188-5.25-0.17751-0.01792-0.34885 0-0.53125 0h-78.508c-0.1824 0-0.35373-0.01792-0.53125 0z" fill="url(#ac)" filter="url(#bl)"/>
    <path d="m189.74673,147.93819c.27265-.01009.56011-.04921.82983-.07373l.34577-.03687c-.16425.00582-.32355-4e-005-.48407,0-1.26708.00031-2.53308-.19127-3.76883-.51619l.5878.22122c-1.47013-.28921-2.48026-.75523-3.35392-1.21674l-.34576-.18435c-8.10967-3.97745-14.80242-14.65711-16.52753-28.02175-.07524-.58287-.11814-1.15444-.17288-1.73293 .02494,4.21944.76316,8.22245 1.48678,11.06122 2.31635,9.08685 6.15426,11.85827 4.46036,11.02435-.54919-.46698-1.12705-.96867-1.34848-1.17986-5.7077-5.44403-12.63158-9.88794-20.36551-9.36517l-35.95948,2.24407 35.95948.1894h.79526c7.90497,0 14.98108,4.4346 20.815,10.65564 4.19519,4.47355 10.08124,6.63331 16.11262,6.93169 .31018.01536.62284-.00565.93356,0zm1.1756-.1106c.13204-.01385.25403-.02842.38034-.03687-.08148-.00439-.16066.0057-.24204,0h-.03457c-.0356.00152-.06813.0356-.10373.03687z" filter="url(#bi)"/>
    <path d="m22.812 108.53c-0.23747 0.01484-0.47785 0.06045-0.71875 0.125l-16.406 4.375 16.406-3.3438c5.1831-1.0607 9.6587 9.3144 9.7812 16.688 0.28952-7.3093-3.9533-18.163-9.0625-17.844z" filter="url(#q)"/>
    <path d="m26.531 91.844c-0.30754 7e-5 -0.62885 0.01122-0.9375 0.03125h-0.09375c-0.33959 0.02425-0.65959 0.07605-1 0.125-0.44716 0.0643-0.90552 0.13116-1.3438 0.21875-10.532 2.105-18.406 10.858-20.438 21.625l19.375-5.1875c7.7088-2.0656 13.851 22.076 6.4375 24.062l-19.812 5.3125c4.2474 5.258 10.2 8.8052 16.75 9.7188 0.04067 0.00567 0.08428-0.00547 0.125 0 2.2785 0.13357 4.169 0.16512 5.5312 0.09375 0.46287-0.02425 0.87834-0.07605 1.2188-0.125 0.41335-0.05944 0.81081-0.14188 1.2188-0.21875 10.187-2.3905 16.675-15.675 14.594-30.469-2.029-14.422-11.477-25.19-21.625-25.188z" fill="#b3b3b3"/>
    <path d="m26.531 91.844c-0.30754 7e-5 -0.62885 0.01122-0.9375 0.03125h-0.09375c-0.33959 0.02425-0.65959 0.07605-1 0.125-0.44716 0.0643-0.90552 0.13116-1.3438 0.21875-10.532 2.105-18.406 10.858-20.438 21.625l19.375-5.1875c7.7088-2.0656 13.851 22.076 6.4375 24.062l-19.812 5.3125c4.2474 5.258 10.2 8.8052 16.75 9.7188 0.04067 0.00567 0.08428-0.00547 0.125 0 2.2785 0.13357 4.169 0.16512 5.5312 0.09375 0.46287-0.02425 0.87834-0.07605 1.2188-0.125 0.41335-0.05944 0.81081-0.14188 1.2188-0.21875 10.187-2.3905 16.675-15.675 14.594-30.469-2.029-14.422-11.477-25.19-21.625-25.188z" fill="url(#g)"/>
    <path d="m26.53125,91.84375c-.30754,7e-005-.62885.01122-.9375.03125h-.09375c-.33959.02425-.65959.07605-1,.125-.44716.0643-.90552.13116-1.34375.21875-10.53196,2.10505-18.40575,10.85841-20.4375,21.625l1.125-.3125c2.39744-10.02721 9.63485-18.36406 19.125-20.96875 .4177-.11465.85504-.22037 1.28125-.3125 .32447-.07014.61382-.1419.9375-.1875 .02904-.00526.06473.00515.09375,0 .2942-.03946.61312-.07414.90625-.09375 1.20908-.08089 2.38678.0089 3.5625.25-1.05875-.23637-2.1359-.37525-3.21875-.375zm5.8125,1.1875c.28357.1164.56441.2407.84375.375-.27982-.13191-.56026-.25921-.84375-.375zm2.5,1.28125c5.93328,3.71552 10.6079,11.51314 11.9375,21.25 1.98377,14.52748-4.19662,28.10879-13.90625,31.125-.38883.1021-.76226.19608-1.15625.28125-.32447.07013-.71507.16531-1.15625.21875-1.29839.15727-3.1095.23759-5.28125.25h-.125c-1.33281-.10442-2.63567-.31873-3.90625-.65625 1.36856.44459 2.78083.7682 4.21875.96875 .04067.00567.08428-.00547.125,0 2.27848.13357 4.16905.16512 5.53125.09375 .46287-.02425.87834-.07605 1.21875-.125 .41335-.05944.81081-.14188 1.21875-.21875 10.1868-2.39054 16.67501-15.67548 14.59375-30.46875-1.45286-10.32673-6.71861-18.75157-13.3125-22.71875zm-13.125,40.21875-13,3.5c.21422.26519.4335.52488.65625.78125l12.34375-4.28125z" filter="url(#r)"/>
    <path d="m26.46875,93.34375c-.28212,7e-005-.59186.0123-.875.03125h-.09375c-.31152.02293-.59398.0787-.90625.125-.4102.06082-.81674.1359-1.21875.21875-3.35175.6908-6.41966,2.13474-9.0625,4.15625 1.96461-.8003 4.07298-1.40929 6.28125-1.78125 .46963-.07911.9583-.12943 1.4375-.1875 .3648-.04421.69859-.1031 1.0625-.125h.09375c.33077-.01809.67043-.03119 1-.03125 8.15622-.00158 15.9128,5.48909 20.1875,13.71875-3.47045-9.58858-10.46064-16.12676-17.90625-16.125z" fill="url(#m)" filter="url(#t)"/>
    <path d="m22.309 107c-0.24512 0.02942-0.51891 0.0768-0.78614 0.16378l-10.384 3.3738 10.253-2.686c1.5633-0.40988 3.0684 0.05173 4.422 1.0809s2.5777 2.6259 3.6031 4.5203c0.34706 0.64114 0.6476 1.3619 0.94992 2.0636-0.27426-0.73503-0.53006-1.4839-0.85165-2.1619-0.93616-1.9735-2.0774-3.679-3.3083-4.8151s-2.5318-1.7035-3.8979-1.5395z" fill="#fff" filter="url(#s)"/>
    <path d="m42.398 107.41c0.73782 3.5441 0.87515 7.3351 0.30076 11.219-1.9476 13.168-11.465 23.634-23.098 26.875 1.2006 0.36603 2.4147 0.6388 3.6693 0.8125 0.03915 0.00542 0.08111-0.00523 0.1203 0 2.1929 0.12761 4.0124 0.16193 5.3234 0.09375 0.44548-0.02317 0.84534-0.04698 1.173-0.09375 0.39783-0.05678 0.78035-0.14531 1.173-0.21875 9.8041-2.2839 16.049-14.992 14.045-29.125-0.48819-3.4446-1.4272-6.6605-2.7068-9.5625z" fill="url(#l)" filter="url(#u)"/>
    <g transform="matrix(-1.1064 0 0 -1.1064 221.45 249.45)">
     <path d="m22.812 108.53c-0.23747 0.01484-0.47785 0.06045-0.71875 0.125l-16.406 4.375 16.406-3.3438c5.1831-1.0607 9.6587 9.3144 9.7812 16.688 0.28952-7.3093-3.9533-18.163-9.0625-17.844z" filter="url(#q)"/>
     <path d="m26.531 91.844c-0.30754 7e-5 -0.62885 0.01122-0.9375 0.03125h-0.09375c-0.33959 0.02425-0.65959 0.07605-1 0.125-0.44716 0.0643-0.90552 0.13116-1.3438 0.21875-10.532 2.105-18.406 10.858-20.438 21.625l19.375-5.1875c7.7088-2.0656 13.851 22.076 6.4375 24.062l-19.812 5.3125c4.2474 5.258 10.2 8.8052 16.75 9.7188 0.04067 0.00567 0.08428-0.00547 0.125 0 2.2785 0.13357 4.169 0.16512 5.5312 0.09375 0.46287-0.02425 0.87834-0.07605 1.2188-0.125 0.41335-0.05944 0.81081-0.14188 1.2188-0.21875 10.187-2.3905 16.675-15.675 14.594-30.469-2.029-14.422-11.477-25.19-21.625-25.188z" fill="#b3b3b3"/>
     <path d="m26.531 91.844c-0.30754 7e-5 -0.62885 0.01122-0.9375 0.03125h-0.09375c-0.33959 0.02425-0.65959 0.07605-1 0.125-0.44716 0.0643-0.90552 0.13116-1.3438 0.21875-10.532 2.105-18.406 10.858-20.438 21.625l19.375-5.1875c7.7088-2.0656 13.851 22.076 6.4375 24.062l-19.812 5.3125c4.2474 5.258 10.2 8.8052 16.75 9.7188 0.04067 0.00567 0.08428-0.00547 0.125 0 2.2785 0.13357 4.169 0.16512 5.5312 0.09375 0.46287-0.02425 0.87834-0.07605 1.2188-0.125 0.41335-0.05944 0.81081-0.14188 1.2188-0.21875 10.187-2.3905 16.675-15.675 14.594-30.469-2.029-14.422-11.477-25.19-21.625-25.188z" fill="url(#g)"/>
     <path d="m26.53125,91.84375c-.30754,7e-005-.62885.01122-.9375.03125h-.09375c-.33959.02425-.65959.07605-1,.125-.44716.0643-.90552.13116-1.34375.21875-10.53196,2.10505-18.40575,10.85841-20.4375,21.625l1.125-.3125c2.39744-10.02721 9.63485-18.36406 19.125-20.96875 .4177-.11465.85504-.22037 1.28125-.3125 .32447-.07014.61382-.1419.9375-.1875 .02904-.00526.06473.00515.09375,0 .2942-.03946.61312-.07414.90625-.09375 1.20908-.08089 2.38678.0089 3.5625.25-1.05875-.23637-2.1359-.37525-3.21875-.375zm5.8125,1.1875c.28357.1164.56441.2407.84375.375-.27982-.13191-.56026-.25921-.84375-.375zm2.5,1.28125c5.93328,3.71552 10.6079,11.51314 11.9375,21.25 1.98377,14.52748-4.19662,28.10879-13.90625,31.125-.38883.1021-.76226.19608-1.15625.28125-.32447.07013-.71507.16531-1.15625.21875-1.29839.15727-3.1095.23759-5.28125.25h-.125c-1.33281-.10442-2.63567-.31873-3.90625-.65625 1.36856.44459 2.78083.7682 4.21875.96875 .04067.00567.08428-.00547.125,0 2.27848.13357 4.16905.16512 5.53125.09375 .46287-.02425.87834-.07605 1.21875-.125 .41335-.05944.81081-.14188 1.21875-.21875 10.1868-2.39054 16.67501-15.67548 14.59375-30.46875-1.45286-10.32673-6.71861-18.75157-13.3125-22.71875zm-13.125,40.21875-13,3.5c.21422.26519.4335.52488.65625.78125l12.34375-4.28125z" filter="url(#r)"/>
     <path d="m26.46875,93.34375c-.28212,7e-005-.59186.0123-.875.03125h-.09375c-.31152.02293-.59398.0787-.90625.125-.4102.06082-.81674.1359-1.21875.21875-3.35175.6908-6.41966,2.13474-9.0625,4.15625 1.96461-.8003 4.07298-1.40929 6.28125-1.78125 .46963-.07911.9583-.12943 1.4375-.1875 .3648-.04421.69859-.1031 1.0625-.125h.09375c.33077-.01809.67043-.03119 1-.03125 8.15622-.00158 15.9128,5.48909 20.1875,13.71875-3.47045-9.58858-10.46064-16.12676-17.90625-16.125z" fill="url(#m)" filter="url(#t)"/>
     <path d="m22.309 107c-0.24512 0.02942-0.51891 0.0768-0.78614 0.16378l-10.384 3.3738 10.253-2.686c1.5633-0.40988 3.0684 0.05173 4.422 1.0809s2.5777 2.6259 3.6031 4.5203c0.34706 0.64114 0.6476 1.3619 0.94992 2.0636-0.27426-0.73503-0.53006-1.4839-0.85165-2.1619-0.93616-1.9735-2.0774-3.679-3.3083-4.8151s-2.5318-1.7035-3.8979-1.5395z" fill="#fff" filter="url(#s)"/>
     <path d="m42.398 107.41c0.73782 3.5441 0.87515 7.3351 0.30076 11.219-1.9476 13.168-11.465 23.634-23.098 26.875 1.2006 0.36603 2.4147 0.6388 3.6693 0.8125 0.03915 0.00542 0.08111-0.00523 0.1203 0 2.1929 0.12761 4.0124 0.16193 5.3234 0.09375 0.44548-0.02317 0.84534-0.04698 1.173-0.09375 0.39783-0.05678 0.78035-0.14531 1.173-0.21875 9.8041-2.2839 16.049-14.992 14.045-29.125-0.48819-3.4446-1.4272-6.6605-2.7068-9.5625z" fill="url(#l)" filter="url(#u)"/>
    </g>
   </g>
   <path d="m538.35032,221.27687c-.49859.03374-.86288.33627-1.375.75s-1.13043.9965-1.8125,1.71875c-1.36414,1.4445-3.02654,3.44478-4.84375,5.84375-3.62708,4.78825-7.7941,11.09195-10.96875,17.1875l-.03125.03125c-11.20383,17.89696-31.01089,28.47944-51.625,29.71875-.82293.04947-1.6293.1056-2.4375.125-.89499.02147-1.81461.01442-2.71875,0h-.25c-.68359-.01597-1.37373-.08533-2.09375-.125-5.33464-.32377-10.51691-1.29831-15.40625-2.96875-.87087-.23335-1.31661-.24588-1.82812.26563-.1645.1645.01537.53707.26562.64062 5.37565,2.61188 10.97729,4.35033 16.65625,5.25 .17644.02854.19801.02177.0625,0 .92453.14547 1.85036.30469 2.78125.40625 .13011.0147.15102.00986.0625,0 .91465.09972 1.84956.19324 2.78125.25 .95452.0591 1.91916.08157 2.875.09375 1.89984.02417 3.77727-.03153 5.6875-.1875 1.90017-.15622 3.78348-.44904 5.65625-.78125-.10731.0186-.04201.04046.1875,0 18.45692-3.16082 37.36457-14.20105 51.5625-31.90625 7.71106-9.04925 12.73454-15.30627 15.71875-19.375 1.4921-2.03437 2.46624-3.52908 3.03125-4.5625 .2825-.51671.47559-.90462.5625-1.25 .04345-.17269.06335-.34344.03125-.53125s-.17051-.40135-.375-.5c-.40897-.19731-.70375-.0343-1.03125.125s-.71712.39674-1.15625.71875c-.87826.64402-1.99843,1.62104-3.3125,2.84375-1.52801,1.42178-3.31688,3.24587-5.21875,5.25 1.19722-1.86093 2.15323-3.45935 2.8125-4.65625 .59873-1.08698 1.00258-1.90832 1.21875-2.53125 .10809-.31147.17118-.56721.1875-.8125s-.01403-.53509-.25-.75-.55464-.21518-.78125-.15625-.4182.16457-.65625.3125c-.4761.29586-1.07413.75633-1.75,1.375-.77708.71131-1.89987,2.01192-2.90625,3.09375 .41045-.86983 1.05522-2.08163 1.25-2.65625 .2008-.59237.30685-1.0119.28125-1.40625-.0128-.19717-.05452-.41653-.21875-.59375s-.42401-.2636-.625-.25z"/>
   <path d="m554.63 193.68c-0.89007 0.01585-1.7348 0.39581-2.3371 1.0513s-0.90969 1.5292-0.8504 2.4174c0.10604 1.6449-0.15502 3.2738-0.71875 4.9688-0.04271 0.15374-0.07404 0.31041-0.09375 0.46875l-0.0625 0.40625c-0.16314 0.21161-0.29959 0.44252-0.40625 0.6875-2.5312 5.782-8.6994 11.943-14 18.406-1.3553 1.6524-3.7043 3.5235-6.4375 4.9062l-0.03125 0.03125c-0.02713 0.01417-0.00537 0.01711-0.03125 0.03125 0.15936-0.08031 0.00311-0.0515-0.5 0.1875l-0.03125 0.03125c-0.35948 0.17606-0.57289 0.27485-0.65625 0.3125-0.4038 0.18513-0.7654 0.45101-1.0625 0.78125-1.7354 1.9237-3.1439 3.866-4.0312 6.0312-1.673 4.0823-0.71144 8.6502 2.125 11.781 5.3908 5.9507 13.101 7.0255 19.375 5.6562 6.0754-1.3259 11.696-4.3358 14.969-8.8125 3.8208-5.2256 8.5231-11.013 11.281-17.562s3.301-14.312-1.5312-21.562c-1.5601-2.3408-3.6627-3.6721-5.3438-4.9062-0.61516-0.4516-1.2678-0.88388-1.9062-1.3125-0.90773-0.60946-1.8527-1.2369-2.875-1.8438-1.1604-0.68885-2.2788-1.2639-3.2812-1.7812-0.48127-0.25371-1.0185-0.38264-1.5625-0.375zm3.7812 12.312c2.2119 1.503 4.1748 2.9725 4.75 3.9688 2.4682 4.2751 2.0672 8.4042-0.03125 13.219s-6.0392 9.9139-10.031 14.688c-1.6942 2.0259-5.7486 4.5055-9.8125 5.25s-7.7949 0.13002-10.562-3.125c-0.93491-1.0996-0.99964-1.1755-0.375-2.5938s2.6899-3.916 6.5312-7.0312c5.655-4.5861 12.416-12.623 16.219-18.094l0.0625-0.09375c0.15684-0.23277 0.28288-0.48487 0.375-0.75 0.10147-0.10804 0.19544-0.22289 0.28125-0.34375 0.60977-0.91905 1.1912-1.8805 1.75-2.9062 0.37675-0.69155 0.53043-1.47 0.84375-2.1875z" fill-rule="evenodd"/>
   <path transform="translate(-12.462 8.3081)" d="m463.78 116.75c-2.9164-0.09446-5.9582 0.57239-8.5625 2.375-5.0576 3.5007-7.3106 9.5816-7.875 17.344-0.4417 6.0745-0.66381 13.249-2.2812 21.781-0.73763 3.8912-3.1855 10.019-5.5312 14.719-0.1233 0.247-0.08328 0.13451-0.125 0.21875-0.7196 0.14099-1.4227 0.22916-2.2188 0.59375-2.0201 0.9252-3.8516 2.3372-5.9688 4.4375-0.54827 0.54389-2.8872 2.5025-5.5938 5.1875s-5.9108 6.2261-8.625 10.5c-5.4429 8.5707-9.0224 20.778-4.125 34.969 1.7152 4.97 5.6159 8.6176 10.469 10.969s10.691 3.4691 16.625 3.375c11.926-0.18913 25.324-5.8334 32.781-18.75 8.1741-14.158 10.905-24.299 9.0312-32.562-0.34811-1.5355-0.51163-2.4783-0.84375-3.625-0.01133-0.03912-0.38297-1.4159-1.4688-2.7188 7.4713-12.21 9.1966-25.215 8.4062-35.969-0.00511-0.06958 0.00532-0.14936 0-0.21875h-0.03125c7.5e-4 -0.03125 7.5e-4 -0.0625 0-0.09375 0.01931 0.247-0.01237-0.14217 0-0.125h0.03125c7e-4 -0.04251-5.6e-4 -0.08253 0-0.125 2.8e-4 -0.02124-2.4e-4 -0.04127 0-0.0625 0.15189-13.302-6.6126-24.744-15.875-29.906-2.4327-1.3559-5.294-2.2178-8.2188-2.3125z" fill-rule="evenodd"/>
   <path d="m454.45 202.98c12.228-13.726 15.177-30.427 14.698-43.978 1.6216-25.058-23.53-45.351-26.682-15.407-0.67715 6.4323-1.2493 14.673-3.329 24.462-1.1478 5.4024-4.0228 12.16-6.7118 17.51-3.7524 7.4654-2.1528-0.47619-9.6493 7.0203-4.5951 4.5951-26.152 20.145-18.698 47.964 3.7199 13.883 34.401 20.035 47.804-3.1792 8.3367-14.44 10.609-24.022 9.5185-30.68-1.1907-7.2713-0.02534-4.3481-6.1149-0.8323-5.941 3.43-3.9395 0.60418-0.8352-2.8805z" fill="#decd87" fill-rule="evenodd"/>
   <path d="m557.11 201.21c3.3937 2.0721 7.2774 4.386 8.8678 7.1406 6.0904 10.549-2.2992 21.942-10.381 31.606-4.7259 5.6512-18.119 10.645-25.344 2.1469-2.4499-2.8814-1.9188-6.1564 2.6332-10.748 3.0263-1.679 5.6292-3.7591 7.4572-5.9787 4.8162-5.8482 11.011-11.836 14.506-18.688 0.91397-1.7916 1.6171-3.6563 2.0444-5.6035l0.21651 0.12499z" fill="#decd87" fill-rule="evenodd"/>
   <path d="m541.35 172.96c-1.3237 0.08996-2.3914 1.1181-2.5312 2.4375-0.08463 0.8154-0.28687 1.6871-0.5625 2.625-0.3463 1.181 0.13993 2.4478 1.1875 3.0938 0.86166 0.53695 1.7425 1.1294 2.625 1.75 2.4016 1.689 4.5796 3.5942 5.875 5.1875 5.4719 6.7304 4.9166 11.576 2.0625 17.125s-8.5708 11.278-13.469 17.25c-2.254 2.7483-7.0661 5.8694-11.938 6.9688s-9.468 0.48088-12.969-3.5938c-1.2693-1.4774-1.4671-2.2304-0.625-4.2812s3.3009-5.1482 7.7188-9.0312c2.01-1.7667 4.1193-3.9759 6.25-6.375 0.91902-1.0639 0.88048-2.6516-0.08908-3.6696s-2.5535-1.1339-3.6609-0.26788c-2.8554 2.2895-6.6799 4.251-10.438 4.9688-0.5036 0.09841-0.96929 0.33668-1.3438 0.6875-3.9248 3.64-6.6733 6.8734-8.125 10.469-1.7916 4.4372-0.74783 9.3704 2.375 12.75 6.1131 6.6156 14.794 7.6753 21.906 6.0312 7.0137-1.6213 13.091-5.4121 16.844-9.9688 4.6679-5.6681 11.048-11.747 14.844-19.188 1.9126-3.7493 3.1234-8.017 2.6875-12.625s-2.5197-9.3124-6.375-13.719c-1.6874-1.9286-3.7235-3.5832-5.875-5.125-0.70999-0.50881-1.4372-1.009-2.1875-1.5-0.49352-0.32299-1.0532-0.70437-1.6875-1.0938-0.41025-0.25185-0.72256-0.42207-0.90625-0.53125-0.48041-0.28501-1.0366-0.41589-1.5938-0.375z" fill-rule="evenodd"/>
   <path d="m542.92 180.17c2.8153 1.9141 5.4302 4.0428 7.1357 6.1406 12.028 14.794-1.861 26.232-11.386 37.846-5.5117 6.7204-20.631 13.249-29.075 3.4211-3.5422-4.123-1.8158-9.0802 7.3129-17.104l0.3697-0.32784c4.7859-2.1699 8.8338-5.374 11.303-8.702 4.5497-6.1327 10.466-12.516 13.618-19.525 0.25793-0.57354 0.50457-1.1638 0.72099-1.7488z" fill="#decd87" fill-rule="evenodd"/>
   <path d="m523.88 147.68c-1.9077-8.6e-4 -3.4778 1.5004-3.5625 3.4062-0.03697 0.78792-0.14832 1.5665-0.34375 2.4062-0.28481 1.1865 0.0571 2.4362 0.90625 3.3125-1.2453 0.07748-2.3595 0.80049-2.9375 1.9062-2.838 5.4179-7.9299 11.282-12.344 17.312-0.9726 1.3287-2.4833 2.8339-4.3438 4.2188-0.20462 0.14635-0.39317 0.31395-0.5625 0.5-1.1212 1.2915-2.2371 2.481-3.1875 3.4062-4.8751 4.7462-8.1498 8.7896-9.6875 13.219-1.6652 4.7966-0.25033 10.013 3.375 13.312 6.8781 6.26 16.066 6.5566 23.344 4.3125 7.1579-2.2072 13.236-6.4907 16.906-11.438 4.3701-5.8906 10.494-12.359 14-20.156 1.7621-3.9186 2.8729-8.4119 2.125-13.156s-3.3174-9.3534-7.5938-13.469c-1.8987-1.8272-4.0978-3.329-6.4062-4.6875-0.75011-0.44139-1.532-0.91146-2.3438-1.3438-1.9931-1.0613-4.034-1.9642-5.9688-2.7812-0.43516-0.18395-0.90256-0.27955-1.375-0.28125zm0.34375 11c1.1274 0.54882 2.2669 1.0667 3.3438 1.6875 2.4963 1.4391 4.7632 3.0594 6.0625 4.4062 2.8628 2.9676 4.0191 5.5146 4.3438 7.9375s-0.19475 4.9089-1.4375 7.6562c-2.4855 5.4947-7.9347 11.569-12.594 17.875-1.9985 2.705-6.616 6.1627-11.344 7.5938s-9.0866 1.1882-12.594-2.25c-1.1881-1.1648-1.3013-1.3307-0.65625-3.1562s2.8692-5.0177 7.0938-9.1562c6.1373-6.0124 13.299-16.242 17.219-23.031 1.7647-3.0566 1.9223-6.6402 0.6875-9.3438-0.03908-0.07437-0.08077-0.14733-0.125-0.21875z" fill-rule="evenodd"/>
   <path d="m529.35 157.29c2.6742 1.5417 5.1475 3.2779 6.8383 5.0306 13.052 13.53-0.38774 25.889-9.383 38.064-5.2052 7.0455-20.167 14.697-29.298 5.7458-3.8306-3.7553-2.3653-8.774 6.4343-17.395 5.6498-5.5348 12.898-15.778 16.639-22.256 0.53366-0.92432 0.84721-1.788 0.99612-2.6003 1.0444-1.6673 2.0124-3.3676 2.798-5.0963 0.51237-1.1274 0.94586-2.27 1.2983-3.4362 1.2375 0.60302 2.476 1.2502 3.6775 1.9428z" fill="#decd87" fill-rule="evenodd"/>
   <path d="m497.04 121.68c-0.96074-0.14445-1.9974-0.15955-3.1562 0.03125-0.39348 0.06478-1.7503 0.27383-2.9062 1.1875-1.5953 1.2608-2.1822 2.636-2.0625 4.6562 0.14238 2.4048 2.0127 4.1576 2.2812 4.4062 2.8956 2.6811 5.1642 4.9116 5.7188 5.8125 0.43458 0.70601 0.40759 0.82178 0.40625 0.75s0.00478 0.23618-0.5625 1.2188c-3.7292 6.4591-11.644 17.52-17 22.844-4.9552 4.9254-8.2451 8.9902-9.7812 13.312-1.6332 4.5953-0.39733 9.5731 3 12.719 6.5969 6.1083 15.523 6.2118 22.688 3.8438 7.0713-2.3373 13.157-6.7565 16.781-11.688 4.5793-6.2311 10.837-13.021 14.406-20.875 1.7945-3.9484 2.8862-8.3436 2.25-12.969s-2.9978-9.2017-7.1562-13.281c-1.8264-1.7917-4.0059-3.285-6.2812-4.625-0.79194-0.46639-1.5625-0.88325-2.3125-1.2812-4.7066-2.4976-9.7144-4.4259-13.594-5.4375-0.87103-0.22715-1.758-0.48055-2.7188-0.625z" fill-rule="evenodd"/>
   <path d="m485.6 166.5c-9.0442 9.0442-10.625 14.243-6.8216 18.046 9.0652 9.0652 24.314 0.91911 29.699-6.4372 9.3054-12.713 23.104-25.688 10.158-39.404-6.7079-7.107-25.86-13.579-21.727-9.4464 5.2775 5.2774 9.1358 8.4083 5.906 14.003-3.8946 6.7456-11.407 17.432-17.214 23.239z" fill="#decd87" fill-rule="evenodd"/>
   <path d="m451.94 130.4c-4.0331 0.26417-7.484 4.5364-8.5 14.688-0.63491 6.3436-1.175 14.471-3.125 24.125-1.0721 5.3077-3.737 11.952-6.25 17.219 0.10514-0.17113 0.19787-0.30677 0.3125-0.5 2.8796-4.8544 6.0307-11.004 7.4688-15.906 2.6058-8.8827 3.6842-16.351 4.75-22.188 2.41-13.198 8.899-15.615 14.562-12.031-2.8842-3.5392-6.2082-5.6034-9.2188-5.4062z" fill="url(#ab)" fill-rule="evenodd" filter="url(#bf)"/>
   <path d="m461.26 138.25c2.2899 5.7063 3.5232 13.099 2.5938 20.969-0.48104 14.269-4.2189 31.86-16 46.312-2.9909 3.6692-4.9762 6.6429 0.53125 3.0312 1.3579-0.89049 2.3451-1.7287 3.0625-2.4062 0.4971-0.6401 1.0989-1.357 1.7812-2.125 11.942-13.439 14.842-29.794 14.375-43.062 0.57451-8.8997-2.3107-17.172-6.3438-22.719z" fill="#786721" fill-rule="evenodd" filter="url(#bg)"/>
   <path d="m427.53782,190.37062c-.39071.03698-.87546.1998-1.46875.5 .53776.06826.91587.1545 1.5-.5h-.03125z" fill="#2b0000" fill-rule="evenodd"/>
   <path d="m459.04 204.11c-0.5322-0.10218-1.6546 1.6271-5 3.528-0.17124 0.09729-0.2796 0.12778-0.4375 0.21474 5.6e-4 0.00825-5.6e-4 0.02238 0 0.03068 0.04237 0.62511 0.08574 1.3736 0.15625 2.3008 0.52332 6.8822-2.1279 16.795-10.5 31.721-1.9628 3.4993-4.2102 6.3429-6.625 8.6205 5.3899-2.2727 10.412-6.3332 14.094-12.609 8.142-13.879 10.377-23.082 9.3125-29.482-0.50876-3.0577-0.58607-4.2461-1-4.3256z" fill="#786721" fill-rule="evenodd" filter="url(#bh)"/>
   <path d="m496.07 128c-0.60401 0.09263-0.62163 0.49394 0.125 1.25 5.0853 5.1495 8.7998 8.1976 5.6875 13.656-1.4372 2.5207-3.422 5.5848-5.5938 8.75 2.9802-3.3738 5.7416-6.6981 7.75-9.375 3.9259-5.2327 0.69275-8.1574-3.625-13.094-0.11982-0.13698-0.2437-0.26252-0.3125-0.375-1.8533-0.59653-3.332-0.91975-4.0312-0.8125zm25.531 26.281c-3.4556 6.9989-11.009 13.836-17.156 20.594-5.139 5.6499-16.774 11.8-24.875 9.125 8.8101 7.5205 22.73-0.14889 27.75-7.0938 5.3594-7.4143 12.256-14.928 14.281-22.625z" fill="#78671e" fill-rule="evenodd" filter="url(#bd)"/>
   <path d="m503.1 131c0.9585 1.0246 1.8488 1.9831 2.625 2.9062 3.0782 0.82961 11.265 5.5663 14.375 9.9062 0.67048 0.93581 1.2125 1.8551 1.625 2.75-0.32241-2.219-1.3892-4.5223-3.5-6.9375-1.7627-2.017-4.9479-4.1512-8.0625-5.7812-2.8836-1.5091-5.6164-2.5418-7.0625-2.8438zm3.2188 6.6562c0.01105 1.3889-0.38463 2.8532-1.2812 4.4062-3.944 6.8312-11.443 17.474-17.375 23.406-0.3748 0.3748-0.71428 0.73222-1.0625 1.0938 0.07664-0.06144 0.14113-0.12568 0.21875-0.1875 6.2691-4.9932 14.726-14.447 19.25-20.5 2.2996-3.0764 1.9276-5.5352 0.25-8.2188z" fill="#fff" fill-rule="evenodd" filter="url(#be)"/>
   <path d="m540.61 176.49c-3.4556 6.9989-11.009 13.836-17.156 20.594-5.139 5.6499-16.774 11.8-24.875 9.125 8.8101 7.5205 22.73-0.14889 27.75-7.0938 5.3594-7.4143 12.256-14.928 14.281-22.625z" fill="#78671e" fill-rule="evenodd" filter="url(#e)"/>
   <path d="m527.79 157.56c-0.19827 0.54984-0.39697 1.0902-0.625 1.625 3.6241 1.7338 8.9619 5.2193 11.312 8.5 0.64402 0.89892 1.1663 1.7966 1.5625 2.6562-0.3097-2.1315-1.3162-4.3362-3.3438-6.6562-1.6932-1.9375-4.7582-3.9968-7.75-5.5625-0.39052-0.20438-0.77586-0.37902-1.1562-0.5625z" fill="#fff" fill-rule="evenodd" filter="url(#f)"/>
   <path d="m553.75 199.9c-3.4556 6.9989-11.009 13.836-17.156 20.594-5.139 5.6499-16.774 11.8-24.875 9.125 8.8101 7.5205 22.73-0.14889 27.75-7.0938 5.3594-7.4143 12.256-14.928 14.281-22.625z" fill="#78671e" fill-rule="evenodd" filter="url(#e)"/>
   <path d="m546.25 183.84c-0.26238 0.527-0.52337 1.0446-0.80745 1.5544 2.6598 1.9996 6.4083 5.8646 7.7426 9.2899 0.36555 0.93854 0.63141 1.8662 0.80075 2.7463 0.13221-2.1287-0.29413-4.385-1.5374-6.8364-1.0383-2.0472-3.1802-4.3236-5.3516-6.107-0.28343-0.23279-0.56799-0.43582-0.84689-0.64718z" fill="#fff" fill-rule="evenodd" filter="url(#f)"/>
   <path transform="matrix(.97135 0 0 .96459 3.0613 15.891)" d="m583.92 205.77c-3.4556 6.9989-11.009 13.836-17.156 20.594-5.139 5.6499-16.774 11.8-24.875 9.125 8.8101 7.5205 22.73-0.14889 27.75-7.0938 5.3594-7.4143 12.256-14.928 14.281-22.625z" fill="#78671e" fill-rule="evenodd" filter="url(#e)"/>
   <path d="m560.38 203.72c-0.25485 0.50833-0.50837 1.0076-0.78431 1.4993 2.5836 1.9288 6.2248 5.6569 7.5208 8.961 0.35509 0.90531 0.61333 1.8002 0.77782 2.649 0.12842-2.0533-0.2857-4.2297-1.4934-6.5943-1.0086-1.9747-3.0891-4.1705-5.1983-5.8908-0.2753-0.22455-0.55171-0.42039-0.82263-0.62426z" fill="#fff" fill-rule="evenodd" filter="url(#f)"/>
   <path d="m414.04 248.83c30.871 32.457 68.971 33.606 100.06 0.56272-32.951 26.756-67.36 23.748-100.06-0.56272z" fill="#786721" filter="url(#bc)"/>
  </g>
  <path d="m422.47 703.15c12.264-44.189 27.434-113.03 52.903-146.27 2.8538-3.7236 8.6733-9.0243 11.089-5.0725 13.673 22.365 44.205 43.009 73.946 53.772 4.4087 1.5955 7.5962 6.863 4.896 10.703-29.661 42.183-49.277 74.54-52.742 120.4-0.35373 4.6812-5.4678 6.9609-9.8653 5.3173l-75.331-28.155c-4.3975-1.6436-6.1499-6.1848-4.896-10.703z" fill="#000080"/>
  <path d="m433.47 691.65c9.9087-38.46 22.166-98.379 42.745-127.3 2.3058-3.2409 7.0079-7.8544 8.9598-4.4149 11.047 19.466 35.717 37.433 59.747 46.801 3.5621 1.3886 6.1376 5.9732 3.9559 9.3156-23.965 36.714-31.072 42.13-46.354 104.76-0.9717 3.9669-3.4725 6.1483-7.0016 4.6597l-58.097-24.505c-3.5291-1.4886-4.969-5.383-3.9559-9.3156z" fill="#06f"/>
  <path d="m471.69 580.31c-2.7573 0.06943-5.1824 1.6466-6.1562 5.2812-11.255 42.006-25.382 52.375-79.781 52.375 8.2691 14.681-6.2388 38.719-32.375 53.688s-54.075 15.212-62.344 0.53125c-26.201 9.2062-36.658 17.621-58.531 30.25-18.229 10.524-35.57 55.125-40.625 76.375-0.3491 2.9412 0.24013 7.8825 3.9688 7.0938 21.102-4.4638 51.622-0.89999 76.062 6.875 23.508 10.651 37.992 42.059 66.094 60.836h167c-9.174-46.455-10.305-151.46 7.4062-191.02 34.946-78.071-21.418-102.77-40.719-102.28z" fill="#06f"/>
  <path d="m385.56 658.47c-0.03885 0.00141-0.08157 0.0198-0.125 0.03125-0.14692 0.03873-0.32462 0.14048-0.53125 0.3125-5.0001 11.304-14.104 20.262-24 27.406-9.5537 6.6494-20.26 11.746-31.531 14.688-0.71418 0.34122-0.74733 0.74138-0.5 1.0938 10.228 2.2388 22.311 2.7845 37.219 0.8125 0.65994-0.08542 1.3336-0.02765 1.9688 0.125l3.0625 0.34375c4.999 1.3988 12.84 8.9953 21.062 22.25-2.7341-5.7823-5.6021-11.377-8.625-16.906-0.86063-1.4327-1.6561-2.7199-2.375-3.7812-1.1088-0.54612-2.0301-1.4411-2.5938-2.5625-0.54165-1.0777-0.71401-2.293-0.53125-3.4688-0.08209-0.14655-0.16583-0.29172-0.25-0.4375l0.3125 0.125c0.0488-0.22956 0.11008-0.4321 0.1875-0.65625 6.0466-17.671 8.07-27.827 7.6875-35.375-0.07001-1.3814-0.21475-2.7009-0.4375-4z" fill="url(#aa)"/>
  <path d="m282.66 778.56c-2.2889 28.387-10.849 55.133-26.156 80.031-0.36181 2.8897-0.61557 5.5839-0.75 7.9375h11c0.91305-1.3222 1.8512-2.7492 2.9062-4.4062 13.356-25.421 17.416-53.379 13-83.562z" filter="url(#d)"/>
  <path d="m243.57 800.06c-12.47-0.02409-21.678 7.2392-28.312 13.875-3.3172 3.3179-6.1123 6.5503-8.375 8.8438s-4.1631 3.3228-3.9688 3.2812c-9.6206 2.0559-15.439 10.814-16.125 19.781-0.54787 7.1607 1.8856 14.858 7.375 20.688 4.1557 2.6366 8.4124 7.8596 16.127 7.8596h200.37c20.768 0 10.813-9.1137 5.4076-10.562-10.708-2.8691-33.455-12.383-42.187-14.723-57.133-19.653-83.899-42.159-125.19-48.669-1.7518-0.27621-3.4705-0.37181-5.125-0.375z"/>
  <path d="m243.57 805.69c-20.636-0.06681-31.157 23.495-39.469 25.219-14.081 2.92-16.19 23.903-2 33.219 3.5775 3.2814 8.074 5.9492 12.928 5.9492h187.39c16.12 0 17.736-2.3656 13.342-3.543-88.875-24.999-119.11-52.919-167.94-60.5-1.4682-0.22798-2.8743-0.3393-4.25-0.34375z" fill="#decd87"/>
  <path d="m245.91 809.84c-20.466-0.06496-30.882 22.825-39.125 24.5-6.0395 1.2276-9.8389 5.759-11.094 11.219 2.2569-2.3119 5.4422-3.9929 9.5-4.625 10.22-1.5919 23.328-26.136 50.406-22.469 34.593 4.6847 61.117 16.388 100.19 30.344-45.017-17.536-70.505-33.306-105.66-38.656-1.4561-0.22162-2.8544-0.30817-4.2188-0.3125z" fill="#fff" filter="url(#ap)"/>
  <path transform="matrix(-2.6748 -.7167 .25085 -1.6148 2970.8 2496.3)" d="m1005 674.25c0.9678 21.92-1.0301 43.861-6.25 65.781 0.22462 12.757 1.2068 20.315 6.25 0 4.2928-21.921 4.1546-43.861 0-65.781z" fill="url(#k)" filter="url(#d)"/>
  <path transform="matrix(-2.3981 -1.3846 -.96443 1.3192 3323.4 1200.1)" d="m1005 674.25c0.9678 21.92-1.0301 43.861-6.25 65.781 0.22462 12.757 1.2068 20.315 6.25 0 4.2928-21.921 4.1546-43.861 0-65.781z" fill="url(#k)" filter="url(#d)"/>
  <g transform="matrix(-.15839 .59111 .59111 .15839 -228.79 567.55)">
   <path d="m-294.44 603.94c-18.802 0-34.063 18.195-34.062 40.625s15.261 40.625 34.062 40.625c15.045 0 27.807-11.663 32.312-27.812-3.9844 4.4231-9.3198 7.125-15.188 7.125-12.316 2e-5 -22.312-11.932-22.312-26.625s9.9963-26.594 22.312-26.594c0.87611 0 1.7439 0.03887 2.5938 0.15625-5.5667-4.7269-12.37-7.5-19.719-7.5z"/>
   <path transform="matrix(1 0 0 .95349 0 28.591)" d="m-294.44 607.34c-16.599 0-30.656 16.338-30.656 37.219s14.058 37.219 30.656 37.219c10.057 0 19.125-5.9647 24.75-15.344-2.4187 0.88149-4.9507 1.4688-7.625 1.4688-14.522 2e-5 -25.719-13.79-25.719-30.031 1e-5 -13.314 7.5685-24.826 18.281-28.594-3.051-1.2384-6.2993-1.9375-9.6875-1.9375z" fill="url(#z)" filter="url(#a)"/>
  </g>
  <g transform="matrix(1.3962 -1.3135 1.028 1.4013 -2185.4 1276.8)" fill-rule="evenodd">
   <path d="m1280.3438,549.9375c-10.8252.08839-21.6405,1.77357-31.7188,6.375-5.0164,2.29033-4.2456,3.27001-2.6875,3.6875 4.1391,1.10906 13.3528,2.04481 18.5937,2.1875h.1563c0,.25888-.2099.46875-.4687.46875-5.4792-.06996-14.7274-.76272-19.3126-1.78125-.2465-.05482-.5045-.12027-.7812-.21875-.029.05826-.0644.09658-.0938.15625-.2221.45227-.4549.94138-.6874,1.46875-.0804.182-.1688.3725-.25.5625-.1366.3189-.2672.62907-.4063.96875-.3144.7675-.6146,1.58294-.9375,2.4375-.5286,1.39883-1.0636,2.89831-1.5938,4.4375s-1.0578,3.12333-1.5624,4.6875c-.111.34418-.2349.68928-.3438,1.03125-.3828,1.20073-.7437,2.39233-1.0938,3.53125-.4528,1.47378-.8757,2.88823-1.25,4.15625-.7414,2.51754-1.3215,4.54678-1.5937,5.5625-.0825.3079-.1349.59559-.1875.875-.0424.22531-.0693.44861-.0938.65625-.0137.11691-.0228.23225-.0312.34375-.0097.13799-.0294.27632-.0312.40625-.0008.04012 0,.08563 0,.125 .001.20144.0124.41157.0312.59375 .025.24083.0723.47826.125.6875 .0048.01882-.005.04393 0,.0625 .0352.13174.08.25525.125.375 .056.14915.1182.27461.1875.40625 .0045.00845-.0045.02287 0,.03125 .071.13331.1675.25861.25.375 .0048.00678-.0049.02452 0,.03125 .086.11914.1842.20896.2813.3125l.0937.09375c.0697.06925.1456.15696.2187.21875l.0626.0625 .125.09375c.1471.10789.2847.19712.4374.28125 .174.09614.3587.17967.5313.25l.0625.03125c.25.09808.4985.15977.7188.21875 4.1386,1.10903 19.9043,7.81567 25.0937,8.5625 .4977.07163 1.0363.15068 1.5937.21875l.3126.03125c.5426.06352 1.1047.13842 1.6874.1875 .3395.02928.6816.04047 1.0313.0625l.5625.03125c.1884.00926.3721-.00652.5625,0 .1761.00556.3536.02828.5313.03125 .5027.00963 1.0215-.01688 1.5312-.03125 .4585-.01332.9151-.02752 1.375-.0625 .5856-.04454 1.1742-.09534 1.75-.1875l.125-.03125c.3436-.05718.6936-.11219 1.0312-.1875 .6163-.13737 1.1945-.32614 1.7813-.53125 .3028-.10585.6137-.21793.9063-.34375h.0312c.4335-.18768.8419-.39245 1.25-.625 .078-.04446.1732-.07866.25-.125l.375-.25c.1956-.12954.3767-.26207.5625-.40625 2.0903-1.6219 4.0145-3.08765 5.8125-4.4375l.0938-.0625c1.7687-1.32712 3.391-2.53381 4.9062-3.625 .0539-.03875.1028-.05528.1562-.09375 1.481-1.06505 2.8278-2.00993 4.0938-2.875 1.3077-.89355 2.5159-1.69737 3.625-2.40625 .0827-.05279.1369-.1044.2188-.15625 1.0312-.65602 1.9592-1.19912 2.8437-1.71875 .7055-.41443 1.3419-.75225 1.9687-1.09375 .2971-.16144.5935-.35286.875-.5 .7174-.37615 1.3669-.70191 2-1l.25-.125c.6126-.28437 1.1938-.51776 1.75-.75l.25-.125c.7574-.39658 1.5149-.77533 2.2813-1.15625l.0625-.03125c.8296-.41175 1.6609-.82783 2.5-1.21875l.125-.0625c.8182-.37988 1.6427-.73615 2.4688-1.09375l.0624-.03125c.8476-.36623 1.7078-.72227 2.5626-1.0625-.1386-.37192-.4153-.88288-.8438-1.625-.2183-.37813-.5268-.99987-.875-1.75-.2774-.59872-.6273-1.38134-.9688-2.15625l-.2812-.625c-.9218-2.10718-2.0156-4.68341-3.1562-7.28125-.0379-.08615-.0872-.16379-.125-.25-.6295-1.43038-1.2427-2.84811-1.875-4.21875l-.375-.8125-.3126-.65625c-.3547-.74795-.7229-1.48055-1.0624-2.15625-.049-.09743-.0766-.18562-.125-.28125-.3979-.78431-.7618-1.45443-1.125-2.09375-.0905-.16044-.1623-.28751-.25-.4375-.7406.45696-1.5888.80917-2.5626,1.15625-6.5371,2.3306-14.0815,4.30829-21.9062,5.625-.2128-.00965-.4-.16534-.4375-.375 7.6046-1.36368 14.9399-3.48038 21.2813-6 2.7687-1.10004 4.4854-2.51954 1.8124-2.9375-8.1057-1.26749-16.5179-2.1625-24.9374-2.09375z" fill="url(#y)"/>
   <path d="m1340.8 582.62c-2.0146 0.06398-4.2064 0.60271-6.625 1.75-5.5626 2.6388-12.029 8.2697-18.969 15.938 13.176-4.086 23.778-2.7162 36.562-4.9688 4.0546-0.717 3.0346-3.32 2.375-4.625-0.2999-0.59328-0.6225-1.1584-0.9375-1.6875l-0.0625-0.09375c-1.3777-1.8158-3.7018-4.543-8.9062-5.9375-1.0944-0.29322-2.2288-0.41339-3.4376-0.375z" fill="url(#x)"/>
   <path d="m1355.6 589.36c-0.5311-13.155-13.936-14.077-21.296-12.851-26.354 4.3911-53.14 26.459-64.132 37.451-1.1307 1.1307-3.2715 3.0431 2.0195 3.1822 9.2032 0.24181 25.512 0.53273 33.351-9.1793 20.546-25.455 38.612-37.793 50.058-18.603z" fill="#f00"/>
   <path d="m1235.4688,597.625c-.056,2.55041-.0552,5.55195-.5626,7.40625-.4616,1.68914.596,1.4132 1.125,1.71875 7.9282,4.57718 20.9148,8.97004 30.4688,10.0625 .1313-.9829.6168-1.52361.9688-1.96875 .4014-.50876.7768-.89499 1.0312-1.15625 2.2828-2.34392 5.2289-5.2002 8.6875-8.25-.6289.27958-1.2651.52531-1.9375.71875-.5603.16158-1.1069.29647-1.6875.40625l-.3437.0625c-.0407.00697-.0844-.00675-.125,0-.6606.10954-1.3289.19568-2,.25-.7236.05855-1.4362.08737-2.1563.09375-.7068.00626-1.4059.00088-2.0937-.03125-.6839-.03195-1.3502-.06669-2-.125-.1615-.01418-.3102-.04711-.4688-.0625-1.1313-.11157-2.2094-.23996-3.1562-.375-.3426-.04883-.7344-.12505-1.1563-.21875-.373-.08339-.7917-.19823-1.2187-.3125-.6337-.16952-1.3933-.39828-2.125-.625-.4659-.14406-.9094-.27473-1.4063-.4375-1.211-.39667-2.5125-.83836-3.8437-1.3125-3.4932-1.24406-7.235-2.66192-10.4063-3.84375-1.1322-.42194-2.1777-.81683-3.125-1.15625s-1.7822-.62609-2.4687-.84375zm40.4374,10.96875c-2.2,1.95988-4.1681,3.79317-5.75,5.375-.5736.57378-1.3916,1.35402-1.375,2 .2659-.53715.8256-1.08079 1.25-1.53125 1.6176-1.71665 3.6203-3.71402 5.875-5.84375z" fill="#f00"/>
   <path d="m1283.5625,548.4375c-1.0863-.007-2.1622.01106-3.25.03125-1.2436.02308-2.5074.06527-3.75.125-9.9459.47803-19.8848,2.24125-29.25,6.0625-1.3262.54105-2.3028.97294-3.0625,1.4375-.7453.45588-1.312.9232-1.6562,1.65625-.099.21072-.1864.45875-.2188.71875-3.8142,6.60509-9.959,27.59281-11.125,31.90625-.9865,3.64917.1353,5.33999 1.4688,6.1875-.0757,2.7934-.1003,5.87738-.5313,7.46875-.1535.56644-.22,1.04867-.125,1.59375 .0949.54506.4589,1.15765.8437,1.4375 .3852.27986.7179.31777.9063.375s.2514.12227.1563.0625c5.4159,3.40521 12.8875,6.77173 20.2812,9.25 5.1022,1.71016 10.1196,3.00294 14.4688,3.53125 .9482.35272 1.9717.48455 3.3437.5 4.5613.05136 11.0371.078 17.4687-1.1875s12.9464-3.86851 17.3126-9.40625c2.1855-2.77228 4.348-5.3525 6.4687-7.78125 14.7204-4.16963 24.7504-2.75292 38.6875-5.1875 1.1925-.209 2.1236-.53761 2.9062-1.03125s1.4206-1.15579 1.7813-1.78125c.7213-1.25093.6499-2.40925.5937-3.15625-.0901-1.20476-.2588-2.27549-.5-3.25-.5136-4.85724-2.8029-8.40042-5.8437-10.5625-3.3002-2.34655-7.3049-3.2061-11-3.34375-.613-.02283-1.2184-.01207-1.8125,0-1.7824.03622-3.4791.2262-4.9688.5-4.1595.76474-8.293,1.96873-12.375,3.46875-.132-.23562-.2608-.47805-.4374-.78125-1.7577-3.01693-7.9481-18.73744-11.5938-24.59375 .0075-.0332.0253-.05909.0312-.09375 .0992-.56717-.0771-1.15179-.4687-1.5625-.6703-.70234-1.491-.83473-2.3125-.9375-7.2711-.90954-14.8336-1.60724-22.4375-1.65625zm-3.2187,1.9375c8.3833-.06893 16.784.8286 24.875,2.09375 .6219.09726.9073.30679.9374.34375-.0063.02058-.0262.07289-.0937.15625-.3116.38472-1.3982,1.02538-2.75,1.5625-6.2077,2.46652-13.4031,4.57701-20.8437,5.9375-.1963.08267-.3187.29034-.2813.5s.2247.36535.4375.375c7.8247-1.31671 15.369-3.2944 21.9062-5.625 .9737-.34708 1.8221-.69929 2.5626-1.15625 3.4361,5.84714 8.9311,19.94722 10.5312,22.71875 .4285.74212.7052,1.25308.8438,1.625-3.4186,1.36092-6.7849,2.9399-10.0626,4.65625-5.0441,2.07583-11.8638,5.79401-28.8437,18.96875-.7433.57672-1.5704,1.03089-2.4375,1.40625h-.0312c-.2925.12582-.6035.2379-.9063.34375-.5868.20511-1.1651.39388-1.7813.53125-.3377.07531-.6876.13032-1.0312.1875l-.125.03125c-1.1517.18432-2.3364.25938-3.5.28125h-.3125c-.2795.00164-.5668.00531-.8437,0-.1776-.00297-.3552-.02569-.5313-.03125-.1904-.00652-.3741.00926-.5625,0l-.5625-.03125c-.3497-.02203-.6919-.03322-1.0313-.0625-.5828-.04908-1.1447-.12398-1.6874-.1875l-.3126-.03125c-.5575-.06807-1.096-.14712-1.5937-.21875-5.1894-.74683-20.955-7.45347-25.0937-8.5625-.2382-.0638-.5095-.13964-.7813-.25-.1726-.07033-.3574-.15386-.5313-.25-.1528-.08413-.2902-.17336-.4374-.28125l-.125-.09375c-.0984-.07886-.1888-.18942-.2813-.28125l-.0937-.09375c-.1026-.1095-.19-.21538-.2813-.34375-.0825-.11639-.179-.24169-.25-.375-.0045-.00838.0045-.0228 0-.03125-.0693-.13164-.1315-.2571-.1875-.40625-.045-.11975-.0898-.24326-.125-.375-.2449-.91596-.2452-2.1349.1875-3.75 1.0334-3.85668 6.2044-21.81516 9.7813-29h.0312c.2767.09848.5346.16393.7812.21875 4.5851,1.01853 13.8334,1.71129 19.3126,1.78125 .2589,0 .4687-.20987.4687-.46875s-.21-.46875-.4687-.46875c-5.2482-.1678-14.1917-1.09396-18.1563-2.15625-.3556-.09527-.6642-.24156-.7813-.34375-.0584-.0511-.0587-.07973-.0624-.09375s.002-.02265.0312-.09375c.0584-.14219.3011-.47866.875-.875s1.4486-.87184 2.6875-1.4375c10.0049-4.5679 20.7526-6.25512 31.5313-6.34375zm58.5937,25.75c5.4053-.0399 11.7374,1.38762 14.8125,6.5l.0938.15625c.0933.16152.163.33111.25.5l.0937.1875c.0873.17729.1699.34594.25.53125 .0277.06359.0673.12296.0937.1875 .0792.19181.1476.39344.2188.59375 .0193.05384.0438.10179.0625.15625 .0747.21846.1542.45895.2187.6875 .0117.04108.0199.08359.0313.125 .075.27358.1269.5243.1875.8125 .057.26982.1129.56097.1562.84375 .0032.02024-.0027.0422 0,.0625 .0445.29433.0958.59772.125.90625 .0314.32832.0482.65504.0626,1-.3531-.59191-.7283-1.15502-1.0938-1.6875-.0049-.00721.0049-.02405 0-.03125-.1544-.22445-.3118-.411-.4688-.625-.4326-.59349-.8639-1.14127-1.3124-1.65625-.1711-.19626-.327-.40874-.5-.59375-.3797-.40333-.7655-.77482-1.1563-1.125-.0173-.01565-.0451-.0157-.0625-.03125-1.1883-1.06355-2.4298-1.88127-3.7188-2.46875l-.0937-.03125c-.403-.17891-.8066-.36529-1.2187-.5h-.0313c-6.729-2.18252-14.6753,1.4721-23.4063,9.09375-.113.0987-.2304.18122-.3437.28125-.4314.38065-.8456.7879-1.2813,1.1875-.3701.33986-.7518.67794-1.125,1.03125l-.5312.5c-.8137.78228-1.6118,1.5942-2.4375,2.4375-.5113.52079-1.0151,1.05052-1.5313,1.59375-.7873.83137-1.5774,1.68058-2.375,2.5625-.6939.76608-1.3932,1.57234-2.0937,2.375-.5887.67534-1.1873,1.33108-1.7813,2.03125-1.1624,1.37135-2.32,2.78865-3.5,4.25-6.5781,8.14989-19.0737,9.24608-28.375,9.25-1.7831.00039-3.4884-.02361-4.9687-.0625-.2739-.0072-.5147-.04615-.75-.0625h-.1563-.25c-3.77-.38285-1.9112-2.08849-.875-3.125 2.5022-2.50216 5.8632-5.59411 9.8126-8.90625 .1255-.10532.2479-.20672.375-.3125 13.4087-11.18256 33.8043-24.89023 53.9687-28.25 1.3801-.22995 2.9447-.3626 4.625-.375zm1.8437,6.5c.3023-.0096.6129-.01045.9063,0s.5584.03155.8437.0625 .5647.0731.8438.125 .5702.11419.8438.1875c1.2112.32456 2.2642.7156 3.1874,1.15625l.2188.09375c.2557.1269.5143.27325.75.40625 .1985.11238.409.22794.5938.34375 .1585.09943.3197.21106.4687.3125 .2305.15768.4473.33908.6563.5 .0819.06316.1708.12404.25.1875 .2533.20497.4966.4194.7187.625 .278.25622.5456.49922.7813.75 .0143.01541.017.04713.0312.0625 .1947.20947.3936.42436.5625.625l.125.15625c.0723.08806.1196.16455.1875.25 .1271.16035.2617.31947.375.46875l.0625.09375c.315.52911.6376,1.09422.9375,1.6875 .6596,1.305 1.6796,3.908-2.375,4.625-12.7847,2.2526-23.3865.88271-36.5625,4.96875 2.6025-2.87542 5.1476-5.46658 7.5937-7.71875 1.6311-1.50145 3.2055-2.84411 4.75-4.03125 .7108-.54616 1.4033-1.05623 2.0938-1.53125l.1875-.125 .0625-.03125c.6761-.45853 1.3449-.89452 2-1.28125 .1587-.09366.311-.1919.4688-.28125 .1678-.09505.3333-.19108.5-.28125 .4378-.23766.8854-.45349 1.3124-.65625 .5845-.27725 1.1607-.50917 1.7188-.71875 .0757-.02821.1431-.06677.2188-.09375 .4558-.16348.9042-.28673 1.3437-.40625 .1477-.04018.2915-.08963.4375-.125 .2958-.07283.5864-.13413.875-.1875 .2618-.0476.5256-.09274.7812-.125 .4261-.05369.8395-.0807 1.25-.09375zm-105.3124,15c.6865.21766 1.5214.50433 2.4687.84375s1.9928.73431 3.125,1.15625c3.1713,1.18183 6.9132,2.59969 10.4063,3.84375 1.3312.47414 2.6327.91583 3.8437,1.3125 .4969.16277.9405.29344 1.4063.4375 .7317.22672 1.4914.45548 2.125.625 .427.11427.8457.22911 1.2187.3125 .4219.0937.8138.16992 1.1563.21875 .9468.13504 2.0249.26343 3.1562.375 .1586.01539.3074.04832.4688.0625 .6498.05831 1.3161.09305 2,.125 .6878.03213 1.3869.03751 2.0937.03125 .7201-.00638 1.4328-.0352 2.1563-.09375 .6711-.05432 1.3395-.14046 2-.25 .0406-.00675.0844.00697.125,0l.3437-.0625c.5806-.10978 1.1272-.24467 1.6875-.40625 .6724-.19344 1.3086-.43917 1.9375-.71875-3.4586,3.0498-6.4047,5.90608-8.6875,8.25-.2544.26126-.6297.64749-1.0312,1.15625-.352.44514-.8375.98585-.9688,1.96875-9.554-1.09246-22.5407-5.48532-30.4688-10.0625-.529-.30555-1.5867-.02961-1.125-1.71875 .5074-1.8543.5067-4.85584.5626-7.40625z"/>
   <path d="m1322.8 580.69c-17.328 5.396-33.867 17.364-44.031 26.188 10.45-7.7617 27.524-19.106 44.031-26.188z" fill="#800000" filter="url(#ba)"/>
   <path d="m1314.4 596.72c-3.2643 2.6783-6.6668 5.5945-10.219 8.75-10.103 8.976-22.799 8.6922-29.938 8.4688-1.4193-0.04444-2.0519-0.28619-2.2188-0.625l-0.0624 0.0625c-1.0316 1.0069-2.9832 2.6887 1.8437 2.8125 8.396 0.21533 23.255 0.49259 30.406-8.1562 3.4823-4.2115 6.8855-8.0125 10.187-11.312z" fill="#800000" filter="url(#bb)"/>
   <path d="m1338.9688,576.9375c-1.6375.01085-3.1966.15261-4.5313.375-4.466.74411-8.9475,2.04618-13.375,3.6875 3.8057-1.31086 7.6437-2.36267 11.4687-3 1.7797-.29652 3.9522-.45991 6.1876-.34375 3.3468.17394 6.832,1.01285 9.4687,2.90625 .1551.11142.2885.25608.4375.375 1.9995,1.12287 3.8647,2.77719 5.5938,5-.754-2.75344-2.2111-4.68808-4.125-6.0625-2.6367-1.89342-6.122-2.73231-9.4688-2.90625-.5588-.02904-1.1104-.03486-1.6562-.03125z" fill="#fff" filter="url(#az)"/>
   <path d="m1334.6 580.78c-0.9514 0.29972-1.9062 0.65404-2.875 1.0938-8.764 3.9776-18.444 13.481-28.75 26.25-2.202 2.728-5.1321 4.6276-8.4063 5.9688 4.0426-1.3439 7.6909-3.4082 10.312-6.6562 10.306-12.769 19.986-22.272 28.75-26.25 0.3261-0.148 0.6445-0.27375 0.9688-0.40625z" fill="#fff" filter="url(#ay)"/>
   <path d="m1350.75,587.09375c-.3535,1.66103-1.3204,3.49762-3.8438,4.5-6.0752,2.40816-11.3517,3.53021-16.7187,4.90625 6.7948-.72471 13.3338-.71533 20.625-2 3.6997-.65423 2.7582-3.0592 2.1563-4.25-.2737-.54137-.5564-1.04845-.8438-1.53125-.0184-.03072-.0441-.06324-.0625-.09375-.3535-.46601-.7831-.97924-1.3125-1.53125z" fill="#800000" filter="url(#ax)"/>
   <path d="m1236.1 598.58c0.8083 2.5774-2.1379 6.6792 1.0824 8.136 3.6975 1.6766 7.4799 3.2047 11.386 4.4048-3.4574-1.7727-6.777-3.8026-9.7812-6.1973-3.0365-1.0015-0.3345-4.868-2.3875-6.3348l-0.3-0.00872z" fill="#800000" filter="url(#aw)"/>
   <path d="m1307.875,561.25c.1609.57659.3806,1.30926.5312,1.84375 .0687.24372.1526.57878.2188.8125 .2861,1.00744.58,2.00287.8125,2.78125 .2917.97523.5671,1.78966.75,2.28125 .3591.96481.5713,1.64149.6875,2.125-.7162.44232-1.4461.89887-2.1562,1.375-.0179.01195-.0135.01926-.0313.03125-.6921.46492-1.3772.94364-2.0625,1.4375l-.125.09375c-.703.50823-1.3988,1.02716-2.0938,1.5625-.0173.01342-.0137.04907-.0312.0625-.6421.49522-1.303.98439-1.9375,1.5l-.1875.15625c-.466.30192-.9555.59903-1.4688.96875l-.2187.15625c-.5304.38754-1.0864.82346-1.6875,1.3125-.2358.19128-.4699.44637-.7188.65625-.5251.44396-1.0652.86743-1.6562,1.40625-.7411.67556-1.511,1.3971-2.375,2.25l-.1875.1875c-.9293.92159-1.9357,1.96333-3.0313,3.125-1.0606,1.12466-2.1966,2.36537-3.4374,3.75-.0447.05001-.0799.07463-.125.125-1.2695,1.41865-2.6432,2.99335-4.125,4.71875-.0273.03165-.0353.03073-.0626.0625l-2.5,2.9375c1.2579-.96534 2.5486-1.92618 3.6876-2.78125l.0937-.0625c1.6661-1.25025 3.1976-2.40952 4.625-3.4375 .0508-.03653.106-.02626.1563-.0625 1.3951-1.00337 2.6511-1.9038 3.8437-2.71875 1.2319-.8418 2.3614-1.61344 3.4063-2.28125 .0778-.04975.1416-.07615.2187-.125 .9715-.61801 1.8542-1.13547 2.6875-1.625 .6646-.39045 1.2532-.70954 1.8438-1.03125 .2798-.1521.5785-.33014.8437-.46875 .6758-.35434 1.2786-.65668 1.875-.9375 .0845-.03972.1358-.08654.2187-.125 .5771-.26788 1.1323-.49997 1.6563-.71875 .0779-.04099.1722-.08417.25-.125 .7135-.37362 1.403-.70365 2.125-1.0625l.0625-.03125c.7815-.3879 1.5845-.78798 2.375-1.15625 .0398-.01854.0539-.04403.0938-.0625 .7708-.35786 1.5654-.69436 2.3437-1.03125l.0625-.03125c.7985-.34501 1.601-.67948 2.4062-1-.1305-.3504-.3775-.83213-.7812-1.53125-.2057-.35621-.5158-.94958-.8438-1.65625-.2614-.56402-.5845-1.30124-.9062-2.03125l-.25-.5625c-.8684-1.98508-1.9255-4.42767-3-6.875l-.0938-.21875c-.5891-1.33872-1.1896-2.68537-1.7812-3.96875z" fill="#800000" filter="url(#o)"/>
   <path d="m1244.9062,562.09375-.1562.34375c-.0757.17148-.1423.35226-.2188.53125-.1287.30039-.2752.58625-.4062.90625-.2962.72303-.5708,1.50745-.875,2.3125-.498,1.3178-1.0005,2.70624-1.5,4.15625s-.9934,2.96395-1.4688,4.4375l-.3124.96875c-.3606,1.13115-.7015,2.23956-1.0313,3.3125-.4265,1.38838-.8348,2.74294-1.1875,3.9375-.6984,2.37165-1.2436,4.26188-1.5,5.21875-.0778.29009-.1379.58052-.1875.84375-.0399.21225-.0395.39814-.0625.59375-.0129.11013-.0233.23871-.0312.34375-.0093.12998-.0296.2526-.0313.375-.0008.0378 0,.08791 0,.125 .0009.18979.0135.39088.0313.5625 .0234.22686.0441.42788.0937.625 .0046.01774-.0047.04501 0,.0625 .0332.1241.0826.26219.125.375 .0527.1405.1222.25098.1875.375 .0043.00798-.0042.02335 0,.03125 .0669.12556.141.2341.2188.34375 .0045.00637-.0046.02491 0,.03125 .081.11224.1898.1837.2812.28125l.0938.09375c.0657.06526.1186.16054.1874.21875 .02.01892.0419.046.0626.0625 .0376.0301.0865.06557.125.09375 .1386.10167.2624.17075.4062.25 .164.09059.3374.18374.5.25 .0215.00876.041-.0083.0625,0 .2356.09243.48.16318.6875.21875 2.399.64286 8.9297,3.27554 14.75,5.375-4.5374-2.61393-9.1013-5.42392-10.9375-6.1875-.1845-.07669-.3842-.15373-.5937-.28125-.0191-.01146-.0434-.05045-.0626-.0625-.1446-.09144-.2917-.18749-.4374-.3125-.1279-.10937-.2518-.23476-.375-.375-.0344-.03889-.0603-.08352-.0938-.125l-.0625-.0625c-.0612-.08033-.1291-.19123-.1875-.28125-.0257-.03971-.0376-.08331-.0625-.125-.0813-.13462-.1779-.25137-.25-.40625-.0041-.00875.0041-.02243 0-.03125-.0691-.15131-.1593-.32667-.2187-.5-.0037-.0109.0038-.02028 0-.03125-.058-.17116-.1095-.33732-.1563-.53125-.0377-.15568-.0642-.32875-.0937-.5-.0043-.02414.0041-.03802 0-.0625-.0442-.27203-.0729-.59314-.0938-.90625-.0158-.23683-.0305-.51936-.0312-.78125 0-.05119-.0008-.10405 0-.15625 .0015-.16892.023-.35183.0312-.53125 .007-.14496-.0115-.28549 0-.4375 .0205-.26995.0583-.55085.0938-.84375 .044-.36327.0871-.75597.1562-1.15625 .228-1.32052.7226-3.94577 1.3438-7.21875 .3135-1.64853.6519-3.49026 1.0312-5.40625 .2933-1.4807.6168-3.0327.9375-4.59375l.2813-1.34375c.3055-1.46962.6183-2.94136.9374-4.40625z" fill="#fff" filter="url(#o)"/>
   <path d="m1280.3 551.16c-10.335 0.08833-20.66 1.6935-30.344 6.0312 10.215-2.5506 20.849-3.557 31.5-3.625 6.487-0.04142 12.978 0.27605 19.375 0.8125 0.641-0.23955 1.2844-0.47166 1.9062-0.71875 0.4147-0.16477 0.8062-0.32612 1.1563-0.5-7.6926-1.2117-15.636-2.068-23.594-2z" fill="#fff" filter="url(#av)"/>
   <path d="m1306.9023,556.92055c-7.1329,2.21193-15.1654,4.04453-23.478,5.28125 .0454.21032.2729.36532.5303.375 8.2337-1.14949 16.2192-2.79982 23.3603-4.75-.1368-.30822-.2796-.61208-.4126-.90625z" fill="#fff" filter="url(#at)"/>
   <path d="m1245.011,562.1393c-.0119.03041-.0177.06333-.0294.09375-.0896.23247-.1764.48162-.2652.71875 5.586.5528 12.361.91995 16.9679.96875 .3129,0 .5891-.20907.5891-.46875h-.2061c-4.5683-.10319-11.5937-.61535-17.0563-1.3125z" fill="#fff" filter="url(#au)"/>
  </g>
  <path d="m187.16 488.81c-1.8829 4.1e-4 -3.8634 0.53928-5.9062 1.7188-15.834 9.1418-10.972 29.563-1.5 45.969 12.974 22.472 35.435 33.812 50.156 25.312 11.635-6.7173 1.4192-12.816-8.625-23.906-0.84536 0.78297-1.977 1.6227-3.5 2.5625-13.177 8.1313-28.499 4.6182-34.188-7.8438-4.1528-9.098-3.8914-21.629 10.281-30.375 2.9858-1.8425 5.4709-2.5508 7.5312-2.375-3.9804-6.4997-8.7659-11.064-14.25-11.062z"/>
  <path d="m182.07 492.77c11.489-6.6332 20.36 10.168 25.388 25.735 7.0586 21.856 32.979 29.593 18.108 38.179-12.936 7.4686-32.869-2.8108-44.494-22.945-8.4867-14.699-12.915-32.936 0.99853-40.969z" fill="#decd87"/>
  <path d="m191.03 502.47c-1.23 0.08016-2.5217 0.51311-3.9062 1.3125-8.8828 5.1285-8.8613 14.31-5.4688 22.719-1.4545-7.904 0.92686-16.954 11.531-23.812-0.69213-0.17966-1.4078-0.26752-2.1562-0.21875zm28.312 36.969c-0.47784 0.33408-0.98056 0.67215-1.5625 1.0312-7.1941 4.4393-15.041 5.4079-21.594 3.3438 6.5486 3.7096 13.847 4.3409 19.688 0.96875 3.2832-1.8956 4.0866-3.5888 3.4688-5.3438z"/>
  <path d="m193.87 502.25c11.703-7.2217 15.715 3.3458 16.603 13.787 1.247 14.658 22.446 15.084 7.2987 24.431-13.177 8.1312-28.488 4.6165-34.176-7.8455-4.1528-9.0981-3.898-21.627 10.275-30.372z" fill="#decd87"/>
  <path d="m382.58 631.08c-1.8401 0.21723-3.4601 1.3185-4.3445 2.9534s-0.92293 3.5997-0.10341 5.2692c4.7987 9.8378 7.4773 15.626 7.8598 23.174s-1.6409 17.686-7.6876 35.357c-0.50618 1.4656-0.39886 3.0751 0.2974 4.4604s1.922 2.4282 3.3969 2.8902l43.966 13.769c2.0453 0.65197 4.2813 0.09647 5.7872-1.4378s2.0269-3.7877 1.3486-5.8325c-6.7537-20.395-11.557-35.597-18.164-48.245s-15.214-22.605-28.534-31.442c-1.1262-0.74991-2.4806-1.0743-3.8221-0.91533z" fill="#010180" fill-rule="evenodd"/>
  <path d="m380.9 633.3c10.076 20.575 13.321 28.241 0.47062 65.607l46.025 14.326c-14.149-42.57-20.01-62.443-46.495-79.933z" fill="#00f" fill-rule="evenodd"/>
  <path d="m288.5 682.22c-1.8189 0.08239-3.4861 1.0617-4.4734 2.6276s-1.1724 3.5244-0.4966 5.255c12.32 31.492 39.119 51.893 82.619 77.601 1.7793 1.0581 3.9812 1.0362 5.7401-0.05722s2.7933-3.0833 2.6967-5.1874l-2.1782-54.173c-0.0664-1.6078-0.78759-3.1135-1.9885-4.1519s-2.7718-1.5144-4.3314-1.3125c-37.131 4.9119-56.689-5.7829-73.906-19.408-1.051-0.83044-2.3552-1.2532-3.6815-1.1934z" fill="#010180" fill-rule="evenodd"/>
  <path d="m287.16 685.37c18.125 14.012 40.297 25.542 79.486 20.478l2.2133 53.923c-44.054-25.435-69.899-44.936-81.699-74.401z" fill="#06f" fill-rule="evenodd"/>
  <path d="m419.08 873.65c0-93.345-17.371-133.87-41.27-175.27l41.608 17.018c44.995 52.894 122.06 158.25-0.33818 158.25z" fill="url(#w)" fill-rule="evenodd"/>
  <path d="m371.12 703.28-3.9668-0.4247 4.1542 5.206c9.3397 5.972 23.869 25.053 35.344 55.844 6.5081 22.961 10.83 50.602 12.062 87.281 0.83805 2.1358 1.6983 4.2721 2.5938 6.4062-0.90325-40.691-5.2482-70.8-11.969-95.562-12.875-36.082-29.684-56.362-38.219-58.75zm4.4688 52.812c-0.75266 0.26022-1.535 0.66832-2.3438 1.1875l0.03125 0.96875c0.80102-0.83653 1.5645-1.5554 2.3125-2.1562z" fill="#010180" fill-rule="evenodd"/>
  <path d="m367.5,706.28125 2.21875,53.90625c21.67015-21.67013 23.55074,38.91644 49.15625,97.375-.00619-.26643.0065-.547 0-.8125-.06653-2.71728-.1512-5.37769-.25-8s-.21334-5.21938-.34375-7.75-.27614-4.99529-.4375-7.4375c-.09009-1.36345-.18168-2.69456-.28125-4.03125-.08056-1.07839-.16331-2.12621-.25-3.1875-.09061-1.1144-.18398-2.18535-.28125-3.28125-.11035-1.23969-.22495-2.43977-.34375-3.65625-.08577-.88187-.15985-1.72384-.25-2.59375-.055-.52926-.13089-1.03761-.1875-1.5625-.16289-1.51018-.3239-3.02532-.5-4.5-.2373-1.98723-.48916-3.91879-.75-5.84375-.22632-1.67027-.44383-3.31234-.6875-4.9375-.03814-.25527-.08644-.49582-.125-.75-.28384-1.86521-.56868-3.72327-.875-5.53125-.15403-.90912-.30914-1.79238-.46875-2.6875-.15734-.88426-.30602-1.78533-.46875-2.65625-.01607-.08582-.04638-.1643-.0625-.25-.11931-.63561-.25284-1.24636-.375-1.875-.53523-2.74848-1.09923-5.44107-1.6875-8.0625-.37058-1.65139-.73405-3.27077-1.125-4.875-.7819-3.20846-1.60854-6.34006-2.46875-9.375-13.18404-35.37854-30.41683-55.28328-39.15625-57.625z" fill="url(#v)" fill-rule="evenodd"/>
  <g transform="matrix(.84752 -.4375 .28206 .75777 -261.83 446.06)">
   <path d="m564.16 766.88a12.338 12.338 0 1 1 -24.677 0 12.338 12.338 0 1 1 24.677 0z" fill="#010180"/>
   <path transform="matrix(.7931 0 0 .7931 113.21 157.49)" d="m564.16 766.88a12.338 12.338 0 1 1 -24.677 0 12.338 12.338 0 1 1 24.677 0z" fill="#06f"/>
   <path transform="matrix(.09052 0 0 .09052 499.14 694.52)" d="m564.16 766.88a12.338 12.338 0 1 1 -24.677 0 12.338 12.338 0 1 1 24.677 0z"/>
   <path transform="matrix(.09052 0 0 .09052 502.69 694.52)" d="m564.16 766.88a12.338 12.338 0 1 1 -24.677 0 12.338 12.338 0 1 1 24.677 0z"/>
   <path transform="matrix(.09052 0 0 .09052 499.14 698.06)" d="m564.16 766.88a12.338 12.338 0 1 1 -24.677 0 12.338 12.338 0 1 1 24.677 0z"/>
   <path transform="matrix(.09052 0 0 .09052 502.69 698.06)" d="m564.16 766.88a12.338 12.338 0 1 1 -24.677 0 12.338 12.338 0 1 1 24.677 0z"/>
   <path transform="matrix(.70776 0 0 .70776 160.31 222.94)" d="m564.16 766.88a12.338 12.338 0 1 1 -24.677 0 12.338 12.338 0 1 1 24.677 0z" fill="url(#j)" filter="url(#p)"/>
  </g>
  <g transform="matrix(.84752 -.4375 .28206 .75777 -255.66 496.69)">
   <path d="m564.16 766.88a12.338 12.338 0 1 1 -24.677 0 12.338 12.338 0 1 1 24.677 0z" fill="#010180"/>
   <path transform="matrix(.7931 0 0 .7931 113.21 157.49)" d="m564.16 766.88a12.338 12.338 0 1 1 -24.677 0 12.338 12.338 0 1 1 24.677 0z" fill="#06f"/>
   <path transform="matrix(.09052 0 0 .09052 499.14 694.52)" d="m564.16 766.88a12.338 12.338 0 1 1 -24.677 0 12.338 12.338 0 1 1 24.677 0z"/>
   <path transform="matrix(.09052 0 0 .09052 502.69 694.52)" d="m564.16 766.88a12.338 12.338 0 1 1 -24.677 0 12.338 12.338 0 1 1 24.677 0z"/>
   <path transform="matrix(.09052 0 0 .09052 499.14 698.06)" d="m564.16 766.88a12.338 12.338 0 1 1 -24.677 0 12.338 12.338 0 1 1 24.677 0z"/>
   <path transform="matrix(.09052 0 0 .09052 502.69 698.06)" d="m564.16 766.88a12.338 12.338 0 1 1 -24.677 0 12.338 12.338 0 1 1 24.677 0z"/>
   <path transform="matrix(.70776 0 0 .70776 160.31 222.94)" d="m564.16 766.88a12.338 12.338 0 1 1 -24.677 0 12.338 12.338 0 1 1 24.677 0z" fill="url(#j)" filter="url(#p)"/>
  </g>
 </g>
</svg>
